<?xml version="1.0" standalone="no"?><!DOCTYPE svg PUBLIC "-//W3C//DTD SVG 1.1//EN" "http://www.w3.org/Graphics/SVG/1.1/DTD/svg11.dtd"><svg t="1584174171148" class="icon" viewBox="0 0 1024 1024" version="1.1" xmlns="http://www.w3.org/2000/svg" p-id="5153" xmlns:xlink="http://www.w3.org/1999/xlink" width="200" height="200"><defs><style type="text/css"></style></defs><path d="M463.238095 52.175238V0h97.52381v52.175238c165.888 23.649524 293.400381 165.936762 293.400381 337.92v185.636572L975.238095 877.714286h-274.334476a195.145143 195.145143 0 0 1-377.807238 0H48.761905l121.075809-301.982476V390.095238c0-171.983238 127.512381-314.270476 293.400381-337.92zM427.544381 877.714286a97.52381 97.52381 0 0 0 168.911238 0H427.544381z m328.850286-283.160381V390.095238c0-134.631619-109.421714-243.809524-244.394667-243.809524a244.102095 244.102095 0 0 0-244.394667 243.809524v204.458667L193.097143 780.190476H830.902857l-74.459428-185.636571zM780.190476 97.52381V0a195.047619 195.047619 0 0 1 195.047619 195.047619h-97.523809a97.52381 97.52381 0 0 0-97.52381-97.523809zM243.809524 97.52381a97.52381 97.52381 0 0 0-97.52381 97.523809H48.761905a195.047619 195.047619 0 0 1 195.047619-195.047619v97.52381z" fill="#2E2F30" p-id="5154"></path></svg>