<?xml version="1.0" standalone="no"?><!DOCTYPE svg PUBLIC "-//W3C//DTD SVG 1.1//EN" "http://www.w3.org/Graphics/SVG/1.1/DTD/svg11.dtd"><svg t="1583911179534" class="icon" viewBox="0 0 1024 1024" version="1.1" xmlns="http://www.w3.org/2000/svg" p-id="6261" xmlns:xlink="http://www.w3.org/1999/xlink" width="200" height="200"><defs><style type="text/css"></style></defs><path d="M0 0h1024v1024H0z" fill="#FFFFFF" p-id="6262"></path><path d="M631.776 800h32v-32h-32v32z m-256 0v-32h-32v32h32z m490.304-67.264l-31.808 3.52 31.808-3.52zM158.304 729.6l31.68 4.608-31.68-4.608zM608 178.88h-32v21.056l19.328 8.32 12.672-29.376zM763.424 384h32v-3.168l-0.64-3.104-31.36 6.272zM260.576 384l-31.36-6.272-0.32 1.536-0.16 1.536 31.84 3.2zM416 178.912l12.672 29.408 19.328-8.32V178.88h-32z m441.184 532.224l-26.304 18.24 26.304-18.24zM763.424 576h-32v10.016l5.696 8.224 26.304-18.24zM164.32 713.28l-27.904-15.68 27.904 15.68zM241.28 576l27.904 15.68 3.264-5.856 0.672-6.624-31.84-3.2z m655.648-199.744a32 32 0 0 0 62.08 15.52l-62.08-15.552z m-120.16-311.04a32 32 0 1 0-17.6 61.568l17.6-61.568zM62.24 391.776a32 32 0 1 0 62.08-15.552l-62.08 15.552zM262.08 126.784a32 32 0 1 0-17.6-61.568l17.6 61.568zM599.776 800a96 96 0 0 1-96 96v64a160 160 0 0 0 160-160h-64z m-96 96a96 96 0 0 1-96-96h-64a160 160 0 0 0 160 160v-64z m-128-64h256v-64h-256v64zM209.28 832H814.72v-64H209.28v64z m605.376 0c28.768 0 52.512-12.704 67.392-33.856 14.112-20.096 18.432-45.216 15.808-68.96l-63.616 7.072c1.344 12-1.376 20.544-4.576 25.12-2.496 3.52-6.4 6.624-15.04 6.624v64zM126.656 725.024c-3.552 24.384 0.128 50.4 14.08 71.36C155.424 818.496 179.648 832 209.28 832v-64c-8.768 0-12.736-3.2-15.296-7.04-3.296-4.96-5.856-14.144-4.032-26.72l-63.36-9.216zM448 160a64 64 0 0 1 64-64V32a128 128 0 0 0-128 128h64z m64-64a64 64 0 0 1 64 64h64a128 128 0 0 0-128-128v64z m83.328 112.32c53.312 22.976 87.616 67.2 108.96 108.16 10.56 20.32 17.6 39.104 21.984 52.8a275.072 275.072 0 0 1 5.568 20.032l0.192 0.896a1.12 1.12 0 0 1 0 0.128v-0.032l31.392-6.304 31.36-6.304V377.6l-0.032-0.16-0.096-0.512a338.24 338.24 0 0 0-7.392-27.104 401.408 401.408 0 0 0-26.208-62.88c-25.056-48.064-68.48-106.368-140.384-137.408l-25.344 58.784zM640 178.88V160h-64v18.912h64zM260.576 384a4585.088 4585.088 0 0 1 31.36 6.304v-0.096a75.328 75.328 0 0 1 1.216-4.96c0.928-3.68 2.4-9.152 4.576-16 4.352-13.664 11.392-32.448 21.952-52.736 21.376-40.96 55.68-85.216 108.992-108.192l-25.344-58.784C331.392 180.576 288 238.88 262.944 286.944a401.472 401.472 0 0 0-26.176 62.88 337.728 337.728 0 0 0-7.52 27.616l-0.032 0.16v0.096l31.36 6.304zM448 178.912V160h-64v18.912h64z m435.488 513.984l-93.76-135.136-52.576 36.48 93.76 135.136 52.576-36.48zM795.424 576v-192h-64v192h64z m-603.2 152.928l76.992-137.28-55.808-31.296-76.992 137.28 55.808 31.296z m80.96-149.76l19.2-192-63.68-6.368-19.2 192 63.68 6.4z m624.704 150.016a79.392 79.392 0 0 0-14.4-36.288l-52.608 36.48a17.248 17.248 0 0 1 3.392 6.88l63.616-7.04z m-707.904 5.056a17.344 17.344 0 0 1 2.24-5.312L136.416 697.6a79.616 79.616 0 0 0-9.76 27.424l63.328 9.216zM959.04 391.744c36.16-144.704-53.632-289.76-182.24-326.528l-17.6 61.568c95.36 27.232 165.568 138.176 137.76 249.472l62.08 15.52z m-834.72-15.52C96.512 264.96 166.72 154.048 262.08 126.816l-17.6-61.568C115.872 102.016 26.08 247.04 62.24 391.808l62.08-15.552z" fill="#000000" p-id="6263"></path></svg>