<?xml version="1.0" standalone="no"?><!DOCTYPE svg PUBLIC "-//W3C//DTD SVG 1.1//EN" "http://www.w3.org/Graphics/SVG/1.1/DTD/svg11.dtd"><svg t="1584174141492" class="icon" viewBox="0 0 1024 1024" version="1.1" xmlns="http://www.w3.org/2000/svg" p-id="5020" xmlns:xlink="http://www.w3.org/1999/xlink" width="200" height="200"><defs><style type="text/css"></style></defs><path d="M384.10256 896.00208h255.99584a128.381914 128.381914 0 0 1-127.99792 127.99792 128.381914 128.381914 0 0 1-127.99792-127.99792z m-319.9948-63.99896a60.479017 60.479017 0 0 1-63.99896-63.99896 60.479017 60.479017 0 0 1 63.99896-63.99896h31.99948A278.651472 278.651472 0 0 0 192.10568 512.00832V320.01144a316.92285 316.92285 0 0 1 319.9948-319.9948 316.858851 316.858851 0 0 1 319.9948 319.9948v191.99688a278.459475 278.459475 0 0 0 95.99844 191.99688h31.99948a60.479017 60.479017 0 0 1 63.99896 63.99896 60.479017 60.479017 0 0 1-63.99896 63.99896z" p-id="5021"></path></svg>