<svg t="1578301093598" class="icon" viewBox="0 0 1024 1024" version="1.1" xmlns="http://www.w3.org/2000/svg" p-id="5626" width="64" height="64"><path d="M256 512l128 0-169.984 169.984-171.989333-169.984 128 0q0-139.989333 100.992-240.981333t240.981333-100.992q100.010667 0 182.016 54.016l-61.994667 61.994667q-54.016-29.994667-120.021333-29.994667-105.984 0-180.992 75.008t-75.008 180.992zM809.984 342.016l171.989333 169.984-128 0q0 139.989333-100.992 240.981333t-240.981333 100.992q-100.010667 0-182.016-54.016l61.994667-61.994667q54.016 29.994667 120.021333 29.994667 105.984 0 180.992-75.008t75.008-180.992l-128 0z" p-id="5627"></path></svg>