<svg t="1578534997386" class="icon" viewBox="0 0 1024 1024" version="1.1" xmlns="http://www.w3.org/2000/svg" p-id="6234" width="64" height="64"><path d="M512.268618 74.838476 65.338612 327.987033l0 124.632555 51.337225 0 0-75.019601 47.851844 0 0 75.019601 73.937966 0 0-75.019601 25.76685 0 0 75.019601 73.944106 0 0-75.019601 25.244964 0 0 75.019601 73.937966 0 0-75.019601 48.745191 0 0 75.019601 51.335179 0 0-75.019601 48.629557 0 0 75.019601 73.941036 0 0-75.019601 25.762757 0 0 75.019601 73.944106 0 0-75.019601 25.242917 0 0 75.019601 73.945129 0 0-75.019601 48.946782 0 0 75.019601 51.339272 0L959.19146 327.987033 512.268618 74.838476zM802.334993 306.310338 222.19508 306.310338l290.072515-164.29795L802.334993 306.310338z" p-id="6235"></path><path d="M91.006202 477.296617l98.898451 0 0 371.956454-98.898451 0 0-371.956454Z" p-id="6236"></path><path d="M239.281223 477.296617l98.896404 0 0 371.956454-98.896404 0 0-371.956454Z" p-id="6237"></path><path d="M388.676765 477.296617l98.896404 0 0 371.956454-98.896404 0 0-371.956454Z" p-id="6238"></path><path d="M536.948717 477.296617l98.894358 0 0 371.956454-98.894358 0 0-371.956454Z" p-id="6239"></path><path d="M685.773254 477.296617l98.894358 0 0 371.956454-98.894358 0 0-371.956454Z" p-id="6240"></path><path d="M834.047252 477.296617l98.898451 0 0 371.956454-98.898451 0 0-371.956454Z" p-id="6241"></path><path d="M64.372611 873.78172l894.227378 0 0 75.93546-894.227378 0 0-75.93546Z" p-id="6242"></path></svg>