<svg t="1578563417407" class="icon" viewBox="0 0 1024 1024" version="1.1" xmlns="http://www.w3.org/2000/svg" p-id="10233" width="64" height="64"><path d="M928.86528 528H96.09728v351.04a48 48 0 0 0 48.032 48H192.00128V688a32 32 0 0 1 64 0v239.04h128V784a32 32 0 0 1 64 0v143.04h128V784a32 32 0 0 1 64 0v143.04h128V688a32 32 0 0 1 64 0v239.04h48.832a48 48 0 0 0 48.032-48V528z m0-64V143.04A48 48 0 0 0 879.87328 96H143.16928a48.32 48.32 0 0 0-47.072 47.04V464h832.768zM879.87328 0A144.384 144.384 0 0 1 1024.00128 144v736a144.384 144.384 0 0 1-144.128 144H143.16928A144.384 144.384 0 0 1 0.00128 879.04v-736A144.384 144.384 0 0 1 143.16928 0h736.704zM236.06528 311.424c0.192 17.28 3.392 29.792 9.632 37.6 6.272 7.776 14.848 11.648 25.792 11.648s18.944-4.416 24.064-13.248c5.088-8.832 7.616-20.736 7.616-35.712 0-15.552-2.784-27.872-8.352-36.992a27.776 27.776 0 0 0-23.904-14.272 29.76 29.76 0 0 0-25.472 12.384c-6.464 8.448-9.568 21.312-9.376 38.592z m66.528 54.144a34.368 34.368 0 0 1-6.048 9.504 46.464 46.464 0 0 1-9.504 8.192 48.96 48.96 0 0 1-27.072 7.936c-8.832 0-16.96-1.76-24.32-5.312a55.36 55.36 0 0 1-19.296-15.552 75.2 75.2 0 0 1-12.832-25.088 114.048 114.048 0 0 1-4.608-33.824c0-15.552 1.92-28.608 5.76-39.168 3.84-10.56 8.768-19.104 14.816-25.632 6.08-6.528 12.864-11.2 20.48-13.952a65.28 65.28 0 0 1 22.592-4.192c8.256 0 16.224 2.72 23.904 8.192 7.68 5.504 13.248 12.736 16.704 21.76V185.856c0-3.072 1.472-6.336 4.48-9.792 2.976-3.456 7.52-5.184 13.664-5.184 6.144 0.192 10.688 1.952 13.696 5.344 2.976 3.36 4.448 6.56 4.448 9.632v188.928a18.304 18.304 0 0 1-0.736 4.896 11.776 11.776 0 0 1-2.88 4.896 15.776 15.776 0 0 1-5.76 3.744 24.64 24.64 0 0 1-9.056 1.44 24.384 24.384 0 0 1-9.216-1.44 16 16 0 0 1-5.6-3.744 11.776 11.776 0 0 1-2.88-4.896 18.304 18.304 0 0 1-0.736-4.896v-9.216z m111.04-54.144c0.16 17.472 3.392 30.048 9.632 37.728 6.24 7.68 14.912 11.52 26.048 11.52 11.168 0 19.296-4.352 24.48-13.12 5.216-8.736 7.68-20.672 7.52-35.84-0.224-15.552-2.944-27.872-8.224-36.992-5.28-9.152-13.376-13.888-24.32-14.272a30.08 30.08 0 0 0-25.92 12.256c-6.368 8.32-9.44 21.248-9.248 38.72z m66.816 54.144c-4.448 9.792-9.92 16.512-16.416 20.16a48.352 48.352 0 0 1-23.904 5.472c-9.44 0-18.016-1.76-25.792-5.312a55.2 55.2 0 0 1-20.032-15.552 73.664 73.664 0 0 1-12.928-25.088 114.048 114.048 0 0 1-4.608-33.824c0-15.552 1.76-28.608 5.312-39.168 3.552-10.56 8.256-19.104 14.112-25.632a49.92 49.92 0 0 1 20.288-13.952c7.68-2.816 15.68-4.192 23.904-4.192 9.248 0 17.376 2.56 24.48 7.648 7.136 5.088 12.48 12.512 16.16 22.304v-12.096c0-3.072 1.472-6.336 4.448-9.792 2.976-3.456 7.52-5.184 13.696-5.184 6.144 0.192 10.688 1.952 13.664 5.312 2.976 3.392 4.48 6.592 4.48 9.664v128.16a16.768 16.768 0 0 1-3.616 9.664c-2.4 3.36-7.36 5.12-14.848 5.312a24.384 24.384 0 0 1-9.184-1.44 16 16 0 0 1-5.632-3.744 11.776 11.776 0 0 1-2.88-4.896 18.304 18.304 0 0 1-0.704-4.896v-8.928z m128.864-98.784v64.512c0 5.376 0.192 9.792 0.576 13.248a21.44 21.44 0 0 0 2.304 8.224 9.056 9.056 0 0 0 5.024 4.16c2.24 0.768 5.152 1.152 8.8 1.152 3.456 0 6.912-0.96 10.368-2.88 3.456-1.92 6.72-3.552 9.792-4.896 3.456-1.536 6.528-1.504 9.216 0.16 2.688 1.6 4.032 5.12 4.032 10.496a25.856 25.856 0 0 1-3.168 13.376 24.832 24.832 0 0 1-8.64 8.64c-3.648 2.24-7.904 3.84-12.8 4.896a90.112 90.112 0 0 1-33.856 0.576 31.456 31.456 0 0 1-24.32-18.72c-2.432-5.28-3.616-12.128-3.616-20.576V266.784h-11.52c-5.376 0-8.96-1.472-10.816-4.48-1.824-2.976-2.72-7.232-2.72-12.8 0-5.76 0.864-9.888 2.592-12.384 1.728-2.496 5.088-3.744 10.08-3.744h12.384v-14.976c0-6.144 1.088-10.752 3.328-13.824 2.208-3.072 7.232-4.608 15.104-4.608 8.064 0 13.056 1.28 14.976 3.904 1.92 2.56 2.88 6.368 2.88 11.36v18.144h29.952c6.72 0 11.072 1.28 13.12 3.904 2.016 2.56 3.104 6.656 3.296 12.224 0.192 5.568-0.864 9.824-3.168 12.8-2.304 3.008-7.104 4.48-14.4 4.48h-28.8z m115.072 44.64c0.16 17.472 3.392 30.048 9.632 37.728 6.24 7.68 14.912 11.52 26.08 11.52 11.136 0 19.264-4.352 24.448-13.12 5.216-8.736 7.68-20.672 7.52-35.84-0.192-15.552-2.944-27.872-8.224-36.992-5.28-9.152-13.376-13.888-24.32-14.272a30.08 30.08 0 0 0-25.92 12.256c-6.368 8.32-9.408 21.248-9.216 38.72z m66.784 54.144c-4.416 9.792-9.856 16.512-16.384 20.16a48.352 48.352 0 0 1-23.904 5.472c-9.44 0-18.016-1.76-25.792-5.312a55.2 55.2 0 0 1-20-15.552 73.664 73.664 0 0 1-12.96-25.088 114.048 114.048 0 0 1-4.64-33.824c0-15.552 1.792-28.608 5.344-39.168 3.552-10.56 8.256-19.104 14.112-25.632a49.92 49.92 0 0 1 20.32-13.952c7.68-2.816 15.616-4.192 23.904-4.192 9.216 0 17.344 2.56 24.448 7.648 7.136 5.088 12.48 12.512 16.16 22.304v-12.096c0-3.072 1.472-6.336 4.448-9.792 2.976-3.456 7.52-5.184 13.664-5.184 6.176 0.192 10.72 1.952 13.696 5.312 2.976 3.392 4.48 6.592 4.48 9.664v128.16a16.768 16.768 0 0 1-3.616 9.664c-2.4 3.36-7.36 5.12-14.816 5.312a24.384 24.384 0 0 1-9.216-1.44 16 16 0 0 1-5.632-3.744 11.776 11.776 0 0 1-2.88-4.896 18.304 18.304 0 0 1-0.736-4.896v-8.928z" p-id="10234"></path></svg>