<?xml version="1.0" standalone="no"?><!DOCTYPE svg PUBLIC "-//W3C//DTD SVG 1.1//EN" "http://www.w3.org/Graphics/SVG/1.1/DTD/svg11.dtd"><svg t="1592446855335" class="icon" viewBox="0 0 1024 1024" version="1.1" xmlns="http://www.w3.org/2000/svg" p-id="4653" xmlns:xlink="http://www.w3.org/1999/xlink" width="200" height="200"><defs><style type="text/css"></style></defs><path d="M762.368 563.2c-1.536 0-3.072 0-4.096 0.512 6.144-13.824 9.216-29.184 9.216-46.592 0-39.424-51.2-130.56-84.48-160.768-18.432 4.096-37.888 6.144-57.856 6.144-20.992 0-40.96-2.048-59.392-6.144-33.792 26.112-91.648 119.808-91.648 160.768 0 6.656 0.512 13.312 1.536 19.968-9.728-0.512-19.968-1.024-30.208-1.024-26.624 0-52.736 3.072-76.8 8.192-0.512-8.704-1.024-14.336-1.024-14.336h-158.72s-7.168 57.344-7.168 128.512 7.168 128.512 7.168 128.512h158.72s1.536-14.848 3.072-36.352c23.552-4.096 47.616 2.048 75.776 19.456 35.328 23.04 79.36 36.352 126.464 36.352 48.128 0 89.088-13.824 123.392-37.376 0.512-0.512 1.024-0.512 1.536-1.024 9.728-6.656 18.944-14.336 27.648-22.528 6.656-6.656 15.872-15.36 29.696-28.672 45.568-44.544 51.2-53.248 51.2-53.248 10.24-10.752 16.896-25.088 16.896-40.96-1.024-32.768-28.16-59.392-60.928-59.392zM586.24 467.968c1.536-3.584 3.584-6.656 6.144-9.216s5.632-5.12 9.216-6.656c3.584-2.048 7.68-3.072 11.776-3.584v-10.24h22.016v11.776c3.072 1.024 6.144 2.048 8.704 3.584v-4.608h22.016v32.768h-22.016c-1.536-2.048-3.584-3.584-5.12-5.12s-3.584-2.56-5.12-3.584c-2.048-1.024-4.096-1.536-6.144-2.048s-5.12-1.024-8.192-1.024c-4.608 0-7.68 1.024-10.24 3.072-2.56 2.048-3.584 4.096-3.584 6.656 0 6.656 7.168 11.264 22.016 13.312 9.216 1.536 16.384 3.584 22.016 6.656 5.12 3.072 9.728 6.144 12.288 10.24 3.072 3.584 4.608 7.168 5.632 10.752 1.024 3.584 1.024 6.144 1.024 8.704 0 4.096-1.024 8.192-2.56 11.776-1.536 3.584-4.096 6.656-7.168 9.216-3.072 2.56-6.656 5.12-10.24 6.656-4.096 1.536-8.704 2.56-13.312 3.072v9.728h-22.016v-12.8c-1.024-0.512-2.048-1.024-3.584-1.536l-3.072-1.536v4.608h-22.016v-32.768h22.016c2.048 2.048 3.584 4.096 5.632 5.632 2.048 1.536 3.584 2.56 5.632 3.584 2.048 1.024 4.096 1.536 6.656 2.048 2.56 0.512 5.12 0.512 8.192 0.512 4.096 0 7.168-1.024 9.728-2.56s4.096-3.584 4.096-6.144c0-2.048-0.512-4.096-2.048-5.632-1.536-1.536-3.072-3.072-5.12-4.096s-4.608-2.048-7.168-2.56l-7.68-1.536c-8.704-1.536-15.872-3.584-21.504-6.144-5.12-2.56-9.216-5.632-12.288-9.216-3.072-3.584-4.608-6.656-5.632-10.24-1.024-3.584-1.536-6.656-1.536-9.216 0.512-4.608 1.024-8.704 2.56-12.288z m199.68 177.664c-8.192 7.68-41.984 42.496-51.2 51.712-24.064 23.04-34.816 33.792-39.936 39.936-3.584 3.072-7.68 6.144-11.264 9.216-30.72 20.48-69.12 32.768-110.592 32.768-41.984 0-80.384-12.288-111.104-33.28-26.624-15.872-57.856-26.112-89.088-23.04 1.024-20.992 2.048-44.544 2.048-64 0-27.648-2.048-61.44-3.584-87.552 23.552-5.12 48.64-8.192 74.752-8.192 79.872 0 150.528 26.112 193.536 67.072 5.12 5.632 8.192 12.8 8.192 20.992 0 17.408-14.336 31.744-32.256 31.744h-2.048v0.512c-16.384-0.512-42.496-7.68-86.016-24.064l-9.728 25.6c46.08 17.408 76.8 25.088 98.304 25.6 27.136 0 49.664-17.92 57.344-42.496 9.216-15.36 44.544-47.616 64-65.024 0-0.512 0.512-0.512 0.512-0.512 3.584-3.072 6.656-6.144 9.216-7.68 4.096-2.56 8.704-3.584 15.36-3.584 17.92 0 32.256 14.336 32.256 31.744 0 8.192-4.096 16.384-8.704 22.528zM512 0C229.376 0 0 229.376 0 512s229.376 512 512 512 512-229.376 512-512S794.624 0 512 0z m0 977.408C254.976 977.408 46.592 769.024 46.592 512S254.976 46.592 512 46.592 977.408 254.976 977.408 512 769.024 977.408 512 977.408z m60.416-640.512s27.136 6.144 53.248 6.144c26.624 0 43.52-3.584 43.52-3.584 15.36-7.68 49.664-86.016 29.696-114.176-22.528-30.72-60.416 36.352-77.824 29.184-17.408-6.656-54.272-43.008-78.848-28.16-20.992 13.312 13.824 98.304 30.208 110.592z" p-id="4654"></path></svg>