<?xml version="1.0" standalone="no"?><!DOCTYPE svg PUBLIC "-//W3C//DTD SVG 1.1//EN" "http://www.w3.org/Graphics/SVG/1.1/DTD/svg11.dtd"><svg t="1592447391026" class="icon" viewBox="0 0 1024 1024" version="1.1" xmlns="http://www.w3.org/2000/svg" p-id="7637" xmlns:xlink="http://www.w3.org/1999/xlink" width="200" height="200"><defs><style type="text/css"></style></defs><path d="M933.408863 487.994162V108.052802c-291.741211 0-421.407734-108.050544-421.407734-108.050544S382.332348 108.050544 90.593395 108.050544v379.94136c0 175.140456-36.025127 421.425796 421.407734 534.908557 457.435119-113.471472 421.407734-359.763586 421.407734-534.906299zM512.003387 956.413376C114.044948 857.689719 145.385183 643.410658 145.385183 491.044421V160.491984c253.810519 0 366.620462-94.007157 366.620461-94.007157S624.815587 160.491984 878.628364 160.491984v330.552437c0 152.375268 31.340235 366.645297-366.624977 465.368955z" fill="#999999" p-id="7638"></path><path d="M537.943013 583.105373h104.401973v50.395891h-104.824178c-0.097085 16.097966-0.038382 31.421515-0.047413 46.736032-0.013547 15.398055-0.006773 30.800625-0.006773 46.724743h-53.127805c-0.128693-30.744181 0.04064-61.630602-0.090311-93.293699h-104.257475v-50.382345h103.760763v-42.209184h-103.616266v-50.533617c9.297535-0.503485 18.829879-0.164818 28.337389-0.225778 9.392362-0.058702 18.782466-0.011289 28.179343-0.011288h29.999114l-105.880819-193.636185c3.081869-0.241582 5.116128-0.535094 7.150387-0.541867 15.176792-0.038382 30.349069 0.173849 45.516831-0.130951 4.998723-0.099342 7.651614 1.544321 10.038087 6.021497 27.736819 52.041813 55.708447 103.961706 83.632661 155.906435 1.323059 2.467753 2.781584 4.865514 4.60587 8.044467 1.948464-3.357318 3.447629-5.804751 4.822617-8.317659 28.204179-51.520266 56.460287-103.017954 84.474812-154.642078 2.740944-5.055168 5.714439-7.254245 11.656915-7.05556 13.959849 0.46736 27.937761 0.151271 41.911157 0.151271h8.645037l-107.948944 194.076452h86.163632c1.587219 5.646706 1.916855 41.303815 0.485422 50.628443h-103.991057c0.009031 14.341414 0.009031 27.917441 0.009031 42.29498z" fill="#999999" p-id="7639"></path></svg>