<svg t="1583722313120" class="icon" viewBox="0 0 1024 1024" version="1.1" xmlns="http://www.w3.org/2000/svg" p-id="6707" width="200" height="200"><path d="M1023.84005 473.771946a64.939706 64.939706 0 0 0-12.796001-30.390503l-1.5995-1.5995a37.428304 37.428304 0 0 0-11.196502-11.196501L831.900031 262.797876v-103.96751a31.990003 31.990003 0 0 0-31.990003-31.990004h-100.76851l-116.763511-99.328959a97.88941 97.88941 0 0 0-135.957513 0l-116.763512 99.328959H224.089972a31.990003 31.990003 0 0 0-31.990003 31.990004v105.40706L28.950953 427.386442A62.220556 62.220556 0 0 0 0.15995 479.850047v479.850047a63.980006 63.980006 0 0 0 63.980006 63.980006h895.720088a63.980006 63.980006 0 0 0 63.980006-63.980006V473.771946z m-754.964074 251.121525L64.139956 915.233989V543.830053z m62.380506 30.390503a25.751953 25.751953 0 0 0 11.196501-7.997501c1.5995-1.43955 3.199-4.63855 4.798501-6.398001l137.557013-127.960012a39.187754 39.187754 0 0 1 25.592003-9.597001 40.307404 40.307404 0 0 1 23.992502 7.997501l383.880038 347.251484H110.525461z m427.066542-25.592003L959.860044 550.547954V911.715089zM897.479538 415.870041l54.383005 55.982505-119.962512 107.486411V350.770384zM491.206498 72.297407a31.990003 31.990003 0 0 1 22.393002-9.437051 31.990003 31.990003 0 0 1 22.393002 9.437051l63.980007 54.542955H425.626992zM767.920025 190.820369v444.501093l-57.582006 51.343955-135.957513-123.321462a106.04686 106.04686 0 0 0-131.159013 1.5995l-126.360512 116.763512-60.781006-52.783506v-438.263042h511.84005zM104.12746 443.381443l87.972509-87.972508v217.532021l-116.763512-102.36801 28.791003-27.191503z" p-id="6708"></path></svg>
