<svg t="1584604820797" class="icon" viewBox="0 0 1024 1024" version="1.1" xmlns="http://www.w3.org/2000/svg" p-id="3975" width="128" height="128"><path d="M569.728 726.464c71.328-0.064 142.656 0.736 213.952-0.288 61.824-0.896 94.112-32.64 97.568-94.176 1.216-21.632 1.216-43.456 0.096-65.088-3.456-67.52-35.072-99.392-102.24-100.192-94.56-1.12-189.152-0.352-283.712-0.352-23.808 0-50.336 1.856-64.192 21.056-31.744 44-76.064 32.128-117.984 33.088-23.232 0.544-25.088-11.36-17.536-30.144 27.968-69.792 76.16-121.312 151.616-128.512a2066.88 2066.88 0 0 1 380.704-0.448c88.544 7.904 156.672 87.872 162.24 177.312 2.4 38.592 2.432 77.568 0.032 116.128-6.336 101.632-91.04 181.376-193.76 182.4-105.408 1.024-210.848 0.416-316.288 0.096-59.52-0.192-107.392-25.696-146.304-69.536-8.032-9.056-20.32-17.824-15.328-31.584 5.632-15.552 21.184-9.344 32.544-9.44 72.832-0.544 145.728-0.288 218.592-0.32z" p-id="3976"></path><path d="M456.128 297.664c-71.36 0.032-142.72-0.672-214.08 0.256-64.384 0.832-96.384 32.736-99.456 97.216-0.896 18.56-0.64 37.248-0.224 55.84 1.632 72.64 33.568 105.76 105.568 106.528 93.056 0.992 186.144 0.256 279.232 0.288 27.232 0 54.976-3.872 71.648-26.368 20.672-27.84 46.784-30.336 77.504-29.696 65.408 1.376 69.472 6.304 37.376 62.848-32.544 57.344-81.12 95.424-147.872 99.712a2819.168 2819.168 0 0 1-357.984 0.384c-96.096-6.112-168.48-85.824-174.208-181.408a953.92 953.92 0 0 1-0.032-111.552c5.952-102.496 89.536-183.52 191.616-184.768 107.008-1.312 214.08-0.736 321.12-0.032 59.52 0.384 107.104 27.072 145.504 71.36 7.904 9.12 19.776 17.984 12.512 31.968-6.208 11.936-19.36 7.104-29.504 7.136-72.896 0.448-145.792 0.256-218.72 0.288z" p-id="3977"></path></svg>