<?xml version="1.0" standalone="no"?><!DOCTYPE svg PUBLIC "-//W3C//DTD SVG 1.1//EN" "http://www.w3.org/Graphics/SVG/1.1/DTD/svg11.dtd"><svg t="1584174111448" class="icon" viewBox="0 0 1024 1024" version="1.1" xmlns="http://www.w3.org/2000/svg" p-id="4271" xmlns:xlink="http://www.w3.org/1999/xlink" width="200" height="200"><defs><style type="text/css"></style></defs><path d="M172.714667 613.546667H64V380.501333h108.714667L726.058667 170.666667v652.714666l-167.850667-63.616v44.970667h-317.013333V639.573333l-68.48-25.941333z m105.770666 40.106666v113.792h242.432v-21.845333l-242.432-91.904z m-177.194666-77.354666h65.28V417.706667h-65.28v158.549333zM895.573333 279.68l18.645334 32.298667-118.229334 68.266666-18.645333-32.298666 118.186667-68.266667z m64.426667 212.48v37.333333h-136.533333v-37.290666h136.533333z m-50.432 216.277333l-18.645333 32.298667-118.272-68.266667 18.688-32.298666 118.186666 68.266666zM688.768 224.682667L203.861333 408.576v176.938667l484.906667 183.850666V224.682667z" p-id="4272"></path></svg>