<?xml version="1.0" standalone="no"?><!DOCTYPE svg PUBLIC "-//W3C//DTD SVG 1.1//EN" "http://www.w3.org/Graphics/SVG/1.1/DTD/svg11.dtd"><svg t="1584174071532" class="icon" viewBox="0 0 1024 1024" version="1.1" xmlns="http://www.w3.org/2000/svg" p-id="4138" xmlns:xlink="http://www.w3.org/1999/xlink" width="200" height="200"><defs><style type="text/css"></style></defs><path d="M591.573 846.275c0 43.947-35.626 79.573-79.573 79.573s-79.573-35.626-79.573-79.573h159.146zM865.152 761.287s47.534 40.743-37.343 40.743H196.194c-84.88 0-37.346-40.682-37.346-40.682 118.888-64.568 86.604-225.867 105.311-402.409 18.639-176.67 205.436-210.623 205.436-210.623l4.152-19.255c8.884-41.205 67.667-41.214 76.564-0.012l4.161 19.268s186.729 33.952 205.436 210.561c18.701 176.603-13.584 337.841 105.244 402.409z" fill="#333333" p-id="4139"></path></svg>