<?xml version="1.0" standalone="no"?><!DOCTYPE svg PUBLIC "-//W3C//DTD SVG 1.1//EN" "http://www.w3.org/Graphics/SVG/1.1/DTD/svg11.dtd"><svg t="1583911161739" class="icon" viewBox="0 0 1024 1024" version="1.1" xmlns="http://www.w3.org/2000/svg" p-id="5071" xmlns:xlink="http://www.w3.org/1999/xlink" width="200" height="200"><defs><style type="text/css"></style></defs><path d="M667.4 397.3h40v162.5h-40zM586.8 476.3h40v82.5h-40z" fill="#B3BAC3" p-id="5072"></path><path d="M275 427c0-130.9 106.1-237 237-237s237 106.1 237 237v174h40V427c0-153-124-277-277-277S235 274 235 427v174h40V427zM793 601.1H231c-44.5 0-80.5 36-80.5 80.5s36 80.5 80.5 80.5h148.8C390.3 825.6 445.5 874 512 874c66.5 0 121.6-48.4 132.2-111.9H793c44.5 0 80.5-36 80.5-80.5s-36-80.5-80.5-80.5zM512 833.9c-44.2 0-81.4-30.7-91.4-71.9h182.7c-9.9 41.3-47.1 71.9-91.3 71.9z m287-111.8H231c-22.4 0-40.5-18.1-40.5-40.5s18.1-40.5 40.5-40.5h568c22.4 0 40.5 18.1 40.5 40.5s-18.1 40.5-40.5 40.5z" fill="#3C3F44" p-id="5073"></path></svg>