<svg t="1584605010511" class="icon" viewBox="0 0 1024 1024" version="1.1" xmlns="http://www.w3.org/2000/svg" p-id="6561" width="128" height="128"><path d="M472.877059 511.762811c136.201197 0 246.527269-114.607567 246.527269-255.865893C719.404328 114.545517 609.016206 0 472.908085 0c-136.015045 0-246.465218 114.545517-246.465218 255.896918 0 141.258326 110.450173 255.865893 246.465218 255.865893z m272.061115 129.40665a217.177307 217.177307 0 0 0-22.462338 380.370541c-41.418815 1.86152-87.739632 2.109722-136.604526 2.109722h-205.387682C204.601035 1023.649724 62.132721 1023.494597 62.132721 948.87868v-21.345427c0-182.490989 142.468313-330.450785 318.350907-330.450785h205.387682c57.92429 0 112.249642 16.040095 159.066864 44.086993z m224.995691 262.939668c-30.218671 50.633338-106.385855 114.204238-110.015819 116.810366a9.028371 9.028371 0 0 1-13.278841 0c-3.629964-3.909192-79.766122-67.511117-109.984794-118.11343-10.858865-18.180843-22.958744-38.936789-22.958743-68.783155 0-49.330274 33.817609-89.539101 76.136158-89.539101 22.958744 0 44.7075 11.665524 59.227355 32.421469l3.629963 9.090421 4.839951-6.484293c14.488829-22.027984 36.237585-33.724533 59.227355-33.724534 42.287524 0 76.136159 40.208827 76.136158 89.539102 0 29.846367-13.278841 51.905376-22.958743 68.783155z" p-id="6562"></path></svg>