<svg t="1578576791482" class="icon" viewBox="0 0 1024 1024" version="1.1" xmlns="http://www.w3.org/2000/svg" p-id="6145" width="200" height="200"><path d="M213.333333 341.333333v512h597.333334V341.333333H213.333333z m0-85.333333h597.333334V170.666667H213.333333v85.333333z m640 682.666667H170.666667a42.666667 42.666667 0 0 1-42.666667-42.666667V128a42.666667 42.666667 0 0 1 42.666667-42.666667h682.666666a42.666667 42.666667 0 0 1 42.666667 42.666667v768a42.666667 42.666667 0 0 1-42.666667 42.666667zM298.666667 426.666667h170.666666v170.666666H298.666667v-170.666666z m0 256h426.666666v85.333333H298.666667v-85.333333z m256-213.333334h170.666666v85.333334h-170.666666v-85.333334z" p-id="6146"></path></svg>