<svg t="1578577511219" class="icon" viewBox="0 0 1024 1024" version="1.1" xmlns="http://www.w3.org/2000/svg" p-id="9822" width="200" height="200"><path d="M819.2 580.25984l-614.4 0.08192c-18.87232 0-34.12992-15.27808-34.12992-34.14016s15.2576-34.12992 34.12992-34.12992h238.92992c56.53504 0 102.4-45.86496 102.4-102.4V300.93312C585.8304 286.83264 614.4 249.33376 614.4 204.8c0-56.56576-45.83424-102.4-102.4-102.4s-102.4 45.83424-102.4 102.4c0 44.53376 28.60032 82.03264 68.27008 96.13312v108.72832a34.14016 34.14016 0 0 1-34.14016 34.12992H204.8c-56.53504 0-102.4 45.83424-102.4 102.4 0 56.53504 45.86496 102.4 102.4 102.4l614.4-0.06144a34.0992 34.0992 0 0 1 34.12992 34.11968A34.0992 34.0992 0 0 1 819.2 716.8H341.32992c-56.53504 0-102.4 45.86496-102.4 102.4s45.86496 102.4 102.4 102.4H716.8v-68.25984H341.32992C322.46784 853.34016 307.2 838.06208 307.2 819.2s15.26784-34.14016 34.12992-34.14016H819.2c56.53504 0 102.4-45.86496 102.4-102.4 0-56.5248-45.86496-102.4-102.4-102.4zM512 170.67008c18.87232 0 34.12992 15.26784 34.12992 34.12992s-15.2576 34.12992-34.12992 34.12992-34.12992-15.26784-34.12992-34.12992 15.2576-34.12992 34.12992-34.12992z" p-id="9823"></path></svg>