<?xml version="1.0" standalone="no"?><!DOCTYPE svg PUBLIC "-//W3C//DTD SVG 1.1//EN" "http://www.w3.org/Graphics/SVG/1.1/DTD/svg11.dtd"><svg t="1592447008431" class="icon" viewBox="0 0 1160 1024" version="1.1" xmlns="http://www.w3.org/2000/svg" p-id="6175" xmlns:xlink="http://www.w3.org/1999/xlink" width="226.5625" height="200"><defs><style type="text/css"></style></defs><path d="M797.115733 317.098667c-18.500267 0-37.000533 3.072-55.5008 6.144V168.96c0-92.535467-178.926933-141.892267-357.853866-141.892267C207.9744 24.029867 25.941333 73.386667 25.941333 165.922133v635.460267c0 3.072 0 9.250133 3.072 12.322133H25.941333c0 92.5696 178.926933 141.9264 357.819734 141.9264 70.9632 0 141.9264-9.284267 200.533333-24.6784 58.606933 46.250667 132.642133 74.0352 209.749333 74.0352A344.917333 344.917333 0 0 0 1139.541333 659.456c0-191.2832-151.1424-342.4256-342.4256-342.4256zM383.761067 85.674667c185.105067 0 296.1408 63.965867 296.1408 97.792 0 33.860267-111.035733 97.826133-296.1408 97.826133-185.070933 0-296.1408-63.965867-296.1408-97.826133 0-33.826133 114.141867-97.792 296.1408-97.792z m-296.1408 163.498666C155.511467 289.314133 269.653333 307.8144 383.761067 307.8144c114.141867 0 228.283733-21.6064 296.1408-58.606933v89.429333a341.538133 341.538133 0 0 0-157.320534 114.176c-40.106667 6.144-86.357333 12.322133-138.820266 12.322133-185.070933 0-296.1408-52.4288-296.1408-80.213333V249.207467z m0 215.927467c67.8912 40.106667 182.033067 58.606933 296.1408 58.606933 33.928533 0 67.8912-3.072 98.7136-6.144-18.500267 43.178667-30.8224 92.501333-30.8224 141.892267v15.428267c-21.6064 3.072-43.2128 3.072-67.8912 3.072-185.070933 0-296.1408-52.4288-296.1408-80.213334v-132.642133z m0 348.5696v-132.642133c67.8912 40.106667 182.033067 58.606933 296.1408 58.606933 24.6784 0 52.462933 0 77.141333-3.072 12.322133 55.534933 37.000533 104.891733 70.929067 144.9984-43.178667 9.216-92.501333 12.322133-148.0704 12.322133-181.998933 3.072-296.1408-49.3568-296.1408-80.213333z m709.495466 132.642133a283.067733 283.067733 0 0 1-283.784533-283.784533c0-132.642133 92.535467-246.784 219.0336-274.5344 3.072 0 6.144 0 9.216-3.072 18.5344-3.106133 37.034667-6.178133 55.534933-6.178133a283.067733 283.067733 0 0 1 283.818667 283.784533c0 154.248533-126.464 283.784533-283.818667 283.784533z m104.891734-438.033066l-37.000534-21.572267-61.713066 117.213867-61.678934-117.213867-37.034666 21.572267 52.462933 98.7136h-89.463467v58.606933h111.035734v24.6784h-111.035734v49.3568h111.035734v83.285333h55.534933v-83.285333h101.7856v-49.3568h-101.7856v-24.6784h101.7856v-58.606933h-86.357333l52.4288-98.7136z" p-id="6176"></path></svg>