<svg t="1578644333455" class="icon" viewBox="0 0 1024 1024" version="1.1" xmlns="http://www.w3.org/2000/svg" p-id="4320" width="64" height="64"><path d="M969.0112 158.4128c0.4096-2.9696 1.7408-5.5296 1.7408-8.6016 0-32.6656-26.5216-59.1872-59.1872-59.1872-13.4144 0-25.1904 5.3248-35.1232 12.8l-0.6144-1.1264-789.9136 406.528C66.9696 515.584 53.248 533.1968 53.248 554.496c0 22.016 14.848 40.0384 34.9184 46.1824l239.7184 82.2272 0.4096-1.024c3.7888 1.2288 7.68 2.3552 11.8784 2.3552 21.1968 0 38.4-17.2032 38.4-38.4 0-14.848-8.704-27.3408-20.992-33.6896l0.3072-0.7168-182.8864-62.1568 627.0976-322.6624L435.8144 637.952c-11.1616 9.5232-19.2512 24.7808-19.2512 40.5504 0 4.1984 1.024 41.472 1.024 41.472V894.976c0 21.1968 17.2032 38.4 38.4 38.4s38.4-17.2032 38.4-38.4V740.0448L766.8736 833.536c6.8608 3.7888 14.2336 6.5536 22.6304 6.5536 26.112 0 47.3088-21.1968 47.3088-47.3088 0-0.2048-0.2048-0.3072-0.2048-0.512L970.752 158.72l-1.7408-0.3072zM766.6688 752.2304L513.536 664.576l356.1472-399.1552-103.0144 486.8096z" p-id="4321"></path></svg>