<?xml version="1.0" standalone="no"?><!DOCTYPE svg PUBLIC "-//W3C//DTD SVG 1.1//EN" "http://www.w3.org/Graphics/SVG/1.1/DTD/svg11.dtd"><svg t="1585827969383" class="icon" viewBox="0 0 1024 1024" version="1.1" xmlns="http://www.w3.org/2000/svg" p-id="1989" xmlns:xlink="http://www.w3.org/1999/xlink" width="200" height="200"><defs><style type="text/css"></style></defs><path d="M512 400.5c103.5 0 197 15.5 265.5 40.5 73 27 118.5 66 118.5 111s-45.5 84.5-118.5 111c-68.5 25-162 40.5-265.5 40.5-50.5 0-67.5-9-67.5-25.5 0-12 9.5-20 21-30 10.5-9 24.5-20.5 24.5-30 0-22-23-29-56.5-30.5-32 0-118.5 8.5-156.5 14.5-23 2.5-45 4.5-64.5 4.5-50 0-85-12.5-85-55 0-39.5 35-74.5 93-101 38.5-18.5 96-32 127.5-37 49.5-9 105.5-14 164-14v1z" fill="#707070" p-id="1990"></path><path d="M512 400.5c103.5 0 197 15 265.5 39 73 26 118.5 63.5 118.5 107s-45.5 81-118.5 107c-68.5 24-162 39-265.5 39-50.5 0-67.5-8.5-67.5-24.5 0-12 9.5-19.5 21-28.5 10.5-8.5 24.5-20 24.5-29 0-21-23-28-56.5-29-32 0-118.5 8.5-156.5 14-23 2.5-45 4.5-64.5 4.5-50 0-85-12-85-53 0-38 35-72 93-97 38.5-17.5 96-31 127.5-35.5 49.5-8.5 105.5-13.5 164-13.5v-0.5z" fill="#707070" p-id="1991"></path><path d="M362 464.5a67 25.5 0 1 0 134 0 67 25.5 0 1 0-134 0Z" fill="#707070" p-id="1992"></path><path d="M528 461.5a64 28.5 0 1 0 128 0 64 28.5 0 1 0-128 0Z" fill="#707070" p-id="1993"></path><path d="M592 603.5a64 24.5 0 1 0 128 0 64 24.5 0 1 0-128 0Z" fill="#707070" p-id="1994"></path><path d="M672 510a64 28.5 0 1 0 128 0 64 28.5 0 1 0-128 0Z" fill="#707070" p-id="1995"></path><path d="M250.5 306.5c7.5 9 17 25 25 38 22 36.5 48.5 89 74.5 148l1.5 3c26 60 48.5 123 69.5 187.5 21 65 40 129 58.5 191.5 2.5 8.5-2.5 17.5-11 20-7.5 2-15.5-1.5-19-8.5-33.5-56.5-67-115-98-172.5-32-59-62-119-88-179.5-26-60-46-116.5-58-158.5-4.5-16.5-8.5-37-10-50 27 5 37 7 55-20.5v1.5z" fill="#707070" p-id="1996"></path><path d="M195.5 327c1.5 12.5 5.5 33.5 10 50 6 21 13.5 45 23.5 71.5 2.5 7.5 5.5 15 8.5 22.5 34.5-1.5 62.5-15 86.5-35-2-4-3.5-7.5-5.5-11.5-15-31-30-58.5-43-80-8-13.5-17.5-29-25-38-3 10-10 18-22 23l-2 0.5c-11 3.5-22 2-31.5-3.5l0.5 0.5z" fill="#707070" p-id="1997"></path><path d="M468.5 895.5c-7.5 2-15.5-1.5-19-8.5-33.5-56.5-67-115-98-172.5-32-59-62-119-88-179.5-26-60-46-116.5-58-158.5-4.5-16.5-8.5-37-10-50 16.5 3 26.5 5 36 0l237 568.5v0.5z" fill="#707070" p-id="1998"></path><path d="M195.5 327c1.5 12.5 5.5 33.5 10 50 6 21 13.5 45 23.5 71.5 2.5 7.5 5.5 15 8.5 22.5 18-0.5 34.5-5 49.5-11.5L232 328l-3 1.5-2 0.5c-11 3.5-22 2-31.5-3.5v0.5z" fill="#707070" p-id="1999"></path><path d="M242.5 243c17 39 23 75.5-10.5 90l-2 0.5c-11 3.5-22 2-31.5-3.5-13-7-24-21.5-32-39.5-7-16.5-12-36-14-55.5-3.5-33 1.5-67 18.5-86l18-21 9 26.5c3 8.5 10.5 22.5 18.5 38 8.5 16 18 33.5 25.5 50.5h0.5z" fill="#707070" p-id="2000"></path></svg>