<svg t="1578572520069" class="icon" viewBox="0 0 1068 1024" version="1.1" xmlns="http://www.w3.org/2000/svg" p-id="528" width="200" height="200"><path d="M870.16196 197.040594h-98.91111V118.451738A119.126778 119.126778 0 0 0 652.337242 0H415.682465a119.126778 119.126778 0 0 0-118.913608 118.451738v78.588856H197.857748a198.639373 198.639373 0 0 0-197.82222 197.076122v432.807162a198.639373 198.639373 0 0 0 197.82222 197.076122h672.33974a198.639373 198.639373 0 0 0 197.822219-197.076122V394.116716a199.420998 199.420998 0 0 0-197.857747-197.076122z m-494.555548-78.588856a40.36028 40.36028 0 0 1 40.040524-39.862882h236.654778a40.395809 40.395809 0 0 1 40.040525 39.862882v78.588856h-316.735827z m-177.642079 157.177712h672.33974a119.126778 119.126778 0 0 1 118.913608 118.451738v39.862883H80.187634v-39.862883a117.243772 117.243772 0 0 1 117.634585-118.41621z m405.02394 236.939005a81.715356 81.715356 0 0 1-69.458053 39.898411 79.228367 79.228367 0 0 1-69.458053-39.898411z m267.280272 432.807161H197.928804a119.126778 119.126778 0 0 1-118.913607-118.451738v-315.527861h302.595517a156.609257 156.609257 0 0 0 303.803483 0h302.595518v315.527861a118.131983 118.131983 0 0 1-117.847755 118.487266z" p-id="529"></path></svg>