<svg t="1578577748637" class="icon" viewBox="0 0 1024 1024" version="1.1" xmlns="http://www.w3.org/2000/svg" p-id="12348" width="200" height="200"><path d="M875.9 157.3h-730c-44.7 0-81.1 36.4-81.1 81.1v542.2c0 44.7 36.4 81.1 81.1 81.1h730c44.7 0 81.1-36.4 81.1-81.1V238.4c0-44.7-36.4-81.1-81.1-81.1z m1.1 623.3c0 0.6-0.5 1.1-1.1 1.1h-730c-0.6 0-1.1-0.5-1.1-1.1V238.4c0-0.6 0.5-1.1 1.1-1.1h730c0.6 0 1.1 0.5 1.1 1.1v542.2z" p-id="12349"></path><path d="M647.3 474.7L426.5 349.3c-12.4-7-27.6-7-39.9 0.2-12.3 7.2-19.9 20.3-19.9 34.6v251c0 14.2 7.6 27.4 19.9 34.6 6.2 3.6 13.2 5.4 20.1 5.4 6.8 0 13.6-1.7 19.8-5.2l220.8-125.5c12.5-7.1 20.2-20.4 20.2-34.8s-7.7-27.7-20.2-34.9z m-200.6 91.6V452.8l99.9 56.7-99.9 56.8z" p-id="12350"></path></svg>