<?xml version="1.0" standalone="no"?><!DOCTYPE svg PUBLIC "-//W3C//DTD SVG 1.1//EN" "http://www.w3.org/Graphics/SVG/1.1/DTD/svg11.dtd"><svg t="1585729798755" class="icon" viewBox="0 0 1024 1024" version="1.1" xmlns="http://www.w3.org/2000/svg" p-id="10783" xmlns:xlink="http://www.w3.org/1999/xlink" width="200" height="200"><defs><style type="text/css"></style></defs><path d="M924.78 393.4h-51.48V139.1v-0.04c0-58.46-47.56-106-106.02-106-58.46 0-106 47.54-106 106l-0.02 107.22c0 47.42-38.58 86.02-86 86.02s-86-38.6-86-86.02V139.06c0-58.46-47.56-106-106.02-106s-106 47.54-106 106v215h-41.76c-5.52 0-10 4.48-10 10v29.36c-16.2 0.14-29.36 13.36-29.36 29.6v0.86c0 10.68 5.72 20.04 14.24 25.24v120.52c-76.62 28.9-130.02 98.16-139.3 178.56-0.9 1.5-1.46 3.24-1.46 5.12 0 1.2 0.24 2.34 0.64 3.4-0.42 5.5-0.64 11.02-0.64 16.6 0 120 97.64 217.62 217.64 217.62s217.64-97.62 217.64-217.62c0-5.58-0.22-11.12-0.64-16.6 0.38-1.06 0.64-2.2 0.64-3.4 0-1.88-0.56-3.62-1.46-5.12-9.28-80.4-62.68-149.66-139.3-178.56v-120.52c8.5-5.2 14.22-14.56 14.22-25.24v-0.86c0-16.24-13.16-29.46-29.36-29.6v-29.36c0-5.52-4.48-10-10-10h-41.74V139.06c0-47.42 38.58-86 86-86s86.02 38.58 86.02 86v107.22c0 58.46 47.54 106.02 106 106.02s106-47.56 106-106.02l0.02-107.22c0-47.42 38.58-86 86-86s86 38.56 86.02 85.98V393.4H801.8c-16.32 0-29.62 13.28-29.62 29.62v0.86c0 10.68 5.72 20.04 14.22 25.24v464.94h0.02c0 42.4 34.48 76.88 76.88 76.88 42.38 0 76.88-34.48 76.88-76.88V449.12c8.5-5.2 14.22-14.56 14.22-25.24v-0.86c0-16.34-13.3-29.62-29.62-29.62zM484.88 773.32c0 108.96-88.66 197.62-197.64 197.62S89.6 882.28 89.6 773.32c0-2.72 0.06-5.44 0.18-8.14 6.08 2.54 10.7 7.56 16.86 14.68 9.04 10.46 20.3 23.46 42.16 23.46 21.88 0 33.14-13 42.18-23.46 9.14-10.56 14.9-16.54 27.04-16.54s17.9 5.98 27.04 16.54c9.04 10.46 20.3 23.46 42.16 23.46 21.88 0 33.14-13 42.18-23.46 9.14-10.56 14.9-16.54 27.04-16.54 12.14 0 17.9 5.98 27.04 16.54 9.04 10.46 20.3 23.46 42.18 23.46 21.86 0 33.12-13 42.16-23.46 6.16-7.12 10.8-12.14 16.88-14.68 0.12 2.7 0.18 5.42 0.18 8.14z m-2.1-28.5c-14.26 3.7-22.88 13.62-30.08 21.96-9.14 10.56-14.9 16.54-27.04 16.54s-17.92-5.98-27.06-16.54c-9.04-10.46-20.28-23.46-42.16-23.46-21.88 0-33.12 13-42.18 23.46-9.14 10.56-14.9 16.54-27.04 16.54s-17.9-5.98-27.04-16.54c-9.04-10.46-20.28-23.46-42.16-23.46s-33.12 13-42.16 23.46c-9.14 10.56-14.92 16.54-27.06 16.54-12.12 0-17.88-5.98-27.02-16.54-7.2-8.32-15.84-18.26-30.08-21.96 10.54-72.7 60.86-134.52 131.88-158.66l6.78-2.32v-130.34h113.76v130.34l6.78 2.32c71 24.14 121.34 85.96 131.88 158.66zM348.72 413.4c5.3 0 9.62 4.32 9.62 9.62v0.86c0 5.3-4.32 9.62-9.62 9.62h-122.98c-5.3 0-9.62-4.32-9.62-9.62v-0.86c0-5.3 4.32-9.62 9.62-9.62h122.98z m-19.74-39.34v19.34h-83.5v-19.34h83.5z m591.2 164.82h-46.86c-5.54 0-10 4.46-10 10 0 5.52 4.46 10 10 10h46.86v15.54h-24.12c-5.52 0-10 4.46-10 10 0 5.52 4.48 10 10 10h24.12v15.54h-46.86c-5.54 0-10 4.48-10 10s4.46 10 10 10h46.86v15.54h-24.12c-5.52 0-10 4.46-10 10 0 5.52 4.48 10 10 10h24.12v15.54h-46.86c-5.54 0-10 4.48-10 10s4.46 10 10 10h46.86v15.54h-24.12c-5.52 0-10 4.48-10 10s4.48 10 10 10h24.12v15.54h-46.86c-5.54 0-10 4.48-10 10s4.46 10 10 10h46.86v15.54h-24.12c-5.52 0-10 4.48-10 10s4.48 10 10 10h24.12v15.54h-46.86c-5.54 0-10 4.48-10 10s4.46 10 10 10h46.86v70.86c0 31.36-25.52 56.88-56.88 56.88-31.38 0-56.88-25.52-56.88-56.88h-0.02V453.5h113.78v85.38z m14.22-115c0 5.3-4.32 9.62-9.62 9.62H801.8c-5.3 0-9.62-4.32-9.62-9.62v-0.86c0-5.3 4.32-9.62 9.62-9.62h122.98c5.3 0 9.62 4.32 9.62 9.62v0.86z" fill="#23130D" p-id="10784"></path><path d="M245.48 374.06h83.5v19.34h-83.5z" fill="#E1E1E5" p-id="10785"></path><path d="M245.48 374.06h83.5v11.606h-83.5z" opacity=".2" p-id="10786"></path><path d="M358.34 423.02v0.86c0 5.3-4.32 9.62-9.62 9.62h-122.98c-5.3 0-9.62-4.32-9.62-9.62v-0.86c0-5.3 4.32-9.62 9.62-9.62h122.98c5.3 0 9.62 4.32 9.62 9.62zM934.4 423.02v0.86c0 5.3-4.32 9.62-9.62 9.62H801.8c-5.3 0-9.62-4.32-9.62-9.62v-0.86c0-5.3 4.32-9.62 9.62-9.62h122.98c5.3 0 9.62 4.32 9.62 9.62z" fill="#636368" p-id="10787"></path><path d="M863.32 548.88c0 5.52 4.46 10 10 10h46.86v15.54h-24.12c-5.52 0-10 4.46-10 10 0 5.52 4.48 10 10 10h24.12v15.54h-46.86c-5.54 0-10 4.48-10 10s4.46 10 10 10h46.86v15.54h-24.12c-5.52 0-10 4.46-10 10 0 5.52 4.48 10 10 10h24.12v15.54h-46.86c-5.54 0-10 4.48-10 10s4.46 10 10 10h46.86v15.54h-24.12a10 10 0 0 0 0 20h24.12v15.54h-46.86c-4.12 0-7.64 2.48-9.18 6-0.52 1.22-0.82 2.58-0.82 4 0 5.52 4.46 10 10 10h46.86v15.54h-24.12c-0.74 0-1.44 0.08-2.14 0.24a9.976 9.976 0 0 0-7.86 9.76c0 5.52 4.48 10 10 10h24.12v15.54h-46.86c-5.54 0-10 4.48-10 10s4.46 10 10 10h46.86v70.86c0 31.36-25.52 56.88-56.88 56.88-31.38 0-56.88-25.52-56.88-56.88h-0.02V453.5h113.78v85.38h-46.86c-5.54 0-10 4.46-10 10z" fill="#F9C139" p-id="10788"></path><path d="M874.3 969.86c-3.56 0.72-7.24 1.08-11 1.08-31.38 0-56.88-25.52-56.88-56.88h-0.02V453.5h22v460.56h0.02c0 27.6 19.76 50.68 45.88 55.8z" opacity=".2" p-id="10789"></path><path d="M484.7 765.18c-6.08 2.54-10.72 7.56-16.88 14.68-8.18 9.46-18.16 21-36.18 23.12-0.76 0.1-1.54 0.16-2.34 0.22-1.18 0.08-2.4 0.12-3.64 0.12-0.32 0-0.62 0-0.92-0.02-21.28-0.34-32.34-13.12-41.26-23.44-9.14-10.56-14.9-16.54-27.04-16.54-12.14 0-17.9 5.98-27.04 16.54-1.08 1.26-2.2 2.54-3.38 3.84-7.58 8.52-17.16 17.44-32.8 19.28-0.12 0.02-0.26 0.02-0.38 0.04-1.78 0.2-3.66 0.3-5.62 0.3-0.32 0-0.62 0-0.92-0.02-21.26-0.34-32.32-13.12-41.24-23.44-9.14-10.56-14.9-16.54-27.04-16.54-4.96 0-8.86 1-12.36 2.94-4.64 2.5-8.58 6.62-13.36 12.1-0.44 0.48-0.88 0.98-1.32 1.5-8.18 9.46-18.18 21-36.22 23.12-1.02 0.12-2.08 0.2-3.16 0.26-0.9 0.06-1.84 0.08-2.8 0.08-0.32 0-0.62 0-0.92-0.02-21.26-0.34-32.32-13.12-41.24-23.44-6.16-7.12-10.78-12.14-16.86-14.68-0.12 2.7-0.18 5.42-0.18 8.14 0 108.96 88.66 197.62 197.64 197.62 10.14 0 20.08-0.76 29.82-2.24a195.85 195.85 0 0 0 50.68-14.9c5.78-2.6 11.42-5.46 16.9-8.58a196.19 196.19 0 0 0 29.7-20.7 198.5 198.5 0 0 0 26.06-26.44 198.026 198.026 0 0 0 30.94-52.84c8.74-22.3 13.54-46.56 13.54-71.92 0-2.72-0.06-5.44-0.18-8.14z m-170.1 158.24c0 11.56-6.88 21.54-16.78 26.04-3.6 1.68-7.62 2.6-11.86 2.6-15.78 0-28.62-12.84-28.62-28.64 0-4.24 0.92-8.26 2.58-11.86 4.5-9.88 14.48-16.78 26.04-16.78 15.8 0 28.64 12.86 28.64 28.64zM219.34 832c20.94 0 38 17.04 38 38 0 10.72-4.46 20.42-11.64 27.34-6.84 6.6-16.14 10.66-26.36 10.66-20.96 0-38-17.04-38-38 0-10.24 4.06-19.52 10.66-26.36 6.92-7.18 16.62-11.64 27.34-11.64z" fill="#3594BF" p-id="10790"></path><path d="M482.78 744.82c-14.26 3.7-22.88 13.62-30.08 21.96-9.14 10.56-14.9 16.54-27.04 16.54s-17.92-5.98-27.06-16.54c-6.6-7.64-14.38-16.64-26.64-20.92-2.92-1.04-6.1-1.8-9.56-2.2-1.9-0.22-3.88-0.34-5.96-0.34-0.32 0-0.62 0-0.92 0.02-21.28 0.34-32.32 13.12-41.26 23.44-0.82 0.96-1.62 1.86-2.42 2.74-7.8 8.84-13.58 13.8-24.62 13.8-12.14 0-17.9-5.98-27.04-16.54-5.96-6.88-12.86-14.88-23.12-19.52-3.86-1.74-8.18-3.02-13.1-3.58-1.88-0.24-3.86-0.36-5.94-0.36-0.32 0-0.64 0-0.94 0.02-10.98 0.18-19.22 3.68-25.88 8.44-5.16 3.68-9.36 8.16-13.08 12.42-0.78 0.88-1.52 1.74-2.26 2.58-9.14 10.56-14.92 16.54-27.06 16.54-12.12 0-17.88-5.98-27.02-16.54-6.84-7.9-14.98-17.26-27.98-21.34-0.68-0.24-1.38-0.44-2.1-0.62 0.06-0.42 0.12-0.86 0.2-1.28a195.76 195.76 0 0 1 14.84-50.72c2.58-5.8 5.42-11.44 8.54-16.94a197.046 197.046 0 0 1 20.66-29.76c7.94-9.48 16.8-18.22 26.44-26.06a195.634 195.634 0 0 1 52.92-30.86c2.72-1.08 5.48-2.08 8.28-3.04l6.78-2.32v-130.34h113.76v130.34l6.78 2.32c71 24.14 121.34 85.96 131.88 158.66z" fill="#E1E1E5" p-id="10791"></path><path d="M356.44 771.32c8.364 0 11.98 3.366 20.988 13.772 9.394 10.868 22.25 25.744 47.02 26.204 0.394 0.02 0.792 0.024 1.214 0.024 1.422 0 2.828-0.046 4.238-0.142 0.776-0.058 1.736-0.13 2.728-0.258 21.074-2.498 32.732-15.98 41.244-25.826 0.986-1.14 1.922-2.214 2.82-3.22a187.906 187.906 0 0 1-12.798 60.444 189.682 189.682 0 0 1-29.69 50.702 190.956 190.956 0 0 1-25.022 25.386 188.548 188.548 0 0 1-28.5 19.862 192.12 192.12 0 0 1-16.212 8.23 188.044 188.044 0 0 1-48.612 14.292 191.12 191.12 0 0 1-28.618 2.15c-101.696 0-184.952-80.446-189.448-181.042 0.89 0.998 1.818 2.064 2.796 3.192 9.394 10.868 22.25 25.744 47 26.204a49.738 49.738 0 0 0 4.458-0.068 60.302 60.302 0 0 0 3.65-0.302c21.15-2.486 32.818-15.98 41.394-25.898 0.37-0.438 0.74-0.858 1.11-1.26l0.068-0.074 0.066-0.074c4.504-5.164 7.768-8.506 11.21-10.362 2.416-1.34 5.032-1.938 8.482-1.938 8.364 0 11.98 3.366 20.988 13.772 9.394 10.868 22.25 25.744 47 26.204 0.394 0.02 0.792 0.024 1.212 0.024 2.254 0 4.446-0.118 6.514-0.35l0.03-0.004c0.158-0.014 0.314-0.03 0.466-0.05 18.018-2.144 29.202-12.272 37.716-21.84a178.798 178.798 0 0 0 3.506-3.982c9.002-10.406 12.618-13.772 20.982-13.772M219.34 916a45.744 45.744 0 0 0 31.912-12.9c9.086-8.756 14.088-20.512 14.088-33.1 0-25.364-20.636-46-46-46-12.588 0-24.344 5.004-33.096 14.086A45.754 45.754 0 0 0 173.34 870c0 25.364 20.636 46 46 46m66.62 44.06c5.35 0 10.48-1.128 15.17-3.318 13.042-5.928 21.47-19.008 21.47-33.322 0-20.204-16.436-36.64-36.64-36.64-14.302 0-27.382 8.426-33.304 21.43a36.056 36.056 0 0 0-3.316 15.21c0 20.204 16.428 36.64 36.62 36.64m70.48-196.74c-12.14 0-17.9 5.98-27.04 16.54-1.08 1.26-2.2 2.54-3.38 3.84-7.58 8.52-17.16 17.44-32.8 19.28-0.12 0.02-0.26 0.02-0.38 0.04-1.78 0.2-3.66 0.3-5.62 0.3-0.32 0-0.62 0-0.92-0.02-21.26-0.34-32.32-13.12-41.24-23.44-9.14-10.56-14.9-16.54-27.04-16.54-4.96 0-8.86 1-12.36 2.94-4.64 2.5-8.58 6.62-13.36 12.1-0.44 0.48-0.88 0.98-1.32 1.5-8.18 9.46-18.18 21-36.22 23.12-1.02 0.12-2.08 0.2-3.16 0.26-0.9 0.06-1.84 0.08-2.8 0.08-0.32 0-0.62 0-0.92-0.02-21.26-0.34-32.32-13.12-41.24-23.44-6.16-7.12-10.78-12.14-16.86-14.68-0.12 2.7-0.18 5.42-0.18 8.14 0 108.96 88.66 197.62 197.64 197.62 10.14 0 20.08-0.76 29.82-2.24a195.85 195.85 0 0 0 50.68-14.9c5.78-2.6 11.42-5.46 16.9-8.58a196.19 196.19 0 0 0 29.7-20.7 198.5 198.5 0 0 0 26.06-26.44 198.026 198.026 0 0 0 30.94-52.84c8.74-22.3 13.54-46.56 13.54-71.92 0-2.72-0.06-5.44-0.18-8.14-6.08 2.54-10.72 7.56-16.88 14.68-8.18 9.46-18.16 21-36.18 23.12-0.76 0.1-1.54 0.16-2.34 0.22-1.18 0.08-2.4 0.12-3.64 0.12-0.32 0-0.62 0-0.92-0.02-21.28-0.34-32.34-13.12-41.26-23.44-9.14-10.56-14.9-16.54-27.04-16.54zM219.34 908c-20.96 0-38-17.04-38-38 0-10.24 4.06-19.52 10.66-26.36 6.92-7.18 16.62-11.64 27.34-11.64 20.94 0 38 17.04 38 38 0 10.72-4.46 20.42-11.64 27.34-6.84 6.6-16.14 10.66-26.36 10.66z m66.62 44.06c-15.78 0-28.62-12.84-28.62-28.64 0-4.24 0.92-8.26 2.58-11.86 4.5-9.88 14.48-16.78 26.04-16.78 15.8 0 28.64 12.86 28.64 28.64 0 11.56-6.88 21.54-16.78 26.04-3.6 1.68-7.62 2.6-11.86 2.6z" opacity=".2" p-id="10792"></path><path d="M336.12 461.5v128.058l5.41 1.852 6.794 2.326a189.266 189.266 0 0 1 85.022 58.642 189.626 189.626 0 0 1 40.454 87.06c-12.674 5.342-20.898 14.87-27.148 22.11-9.01 10.41-12.626 13.776-20.99 13.776-8.384 0-12-3.366-21.006-13.77-7.026-8.134-15.77-18.256-30.01-23.226a51.432 51.432 0 0 0-11.324-2.61 60.236 60.236 0 0 0-6.88-0.394c-0.42 0-0.818 0.004-1.214 0.024-24.718 0.46-37.578 15.306-46.974 26.152l-0.058 0.066-0.018 0.02a105.1 105.1 0 0 1-2.256 2.554l-0.04 0.044-0.04 0.044c-7.344 8.324-11.064 11.092-18.622 11.092-8.364 0-11.98-3.366-20.994-13.778l-0.086-0.098c-6.226-7.186-13.974-16.13-25.794-21.476a51.876 51.876 0 0 0-15.426-4.228 55.068 55.068 0 0 0-6.902-0.418c-0.416 0-0.832 0.004-1.232 0.024-11.302 0.214-21.194 3.462-30.234 9.922-5.892 4.202-10.616 9.27-14.422 13.626-0.456 0.514-0.898 1.022-1.336 1.524l-0.986 1.128c-9.01 10.41-12.628 13.776-21.012 13.776-8.346 0-11.96-3.366-20.972-13.776-6.22-7.184-14.506-16.754-27.146-22.09a188.048 188.048 0 0 1 13.368-43.382 189.58 189.58 0 0 1 28.024-44.814 187.452 187.452 0 0 1 25.37-25.002 187.584 187.584 0 0 1 50.81-29.618 175.09 175.09 0 0 1 7.918-2.906l6.78-2.32 5.41-1.852v-128.058h97.762m8-8.004h-113.76v130.34l-6.78 2.32c-2.8 0.96-5.56 1.96-8.28 3.04a195.634 195.634 0 0 0-52.92 30.86 194.99 194.99 0 0 0-26.44 26.06 197.046 197.046 0 0 0-20.66 29.76 194.472 194.472 0 0 0-8.54 16.94 195.76 195.76 0 0 0-14.84 50.72c-0.08 0.42-0.14 0.86-0.2 1.28 0.72 0.18 1.42 0.38 2.1 0.62 13 4.08 21.14 13.44 27.98 21.34 9.14 10.56 14.9 16.54 27.02 16.54 12.14 0 17.92-5.98 27.06-16.54 0.74-0.84 1.48-1.7 2.26-2.58 3.72-4.26 7.92-8.74 13.08-12.42 6.66-4.76 14.9-8.26 25.88-8.44 0.3-0.02 0.62-0.02 0.94-0.02 2.08 0 4.06 0.12 5.94 0.36 4.92 0.56 9.24 1.84 13.1 3.58 10.26 4.64 17.16 12.64 23.12 19.52 9.14 10.56 14.9 16.54 27.04 16.54 11.04 0 16.82-4.96 24.62-13.8 0.8-0.88 1.6-1.78 2.42-2.74 8.94-10.32 19.98-23.1 41.26-23.44 0.3-0.02 0.6-0.02 0.92-0.02 2.08 0 4.06 0.12 5.96 0.34 3.46 0.4 6.64 1.16 9.56 2.2 12.26 4.28 20.04 13.28 26.64 20.92 9.14 10.56 14.92 16.54 27.06 16.54s17.9-5.98 27.04-16.54c7.2-8.34 15.82-18.26 30.08-21.96-10.54-72.7-60.88-134.52-131.88-158.66l-6.78-2.32v-130.34z" opacity=".2" p-id="10793"></path><path d="M599.89 393.402c-54.384 0-98.63 44.246-98.63 98.632a10 10 0 0 0 20 0c0-43.358 35.274-78.632 78.63-78.632 43.356 0 78.628 35.274 78.628 78.632 0 43.356-35.274 78.63-78.628 78.63a10 10 0 0 0-10 10l0.002 0.02v63.242c0 5.524 4.476 10 10 10s10-4.476 10-10V590.16c49.704-5.028 88.626-47.116 88.626-98.124 0.002-54.388-44.242-98.634-98.628-98.634zM600.52 658.34c-18.34 0-33.26 14.92-33.26 33.28 0 18.34 14.92 33.28 33.26 33.28 18.36 0 33.28-14.94 33.28-33.28 0-18.36-14.92-33.28-33.28-33.28z m0 46.56c-7.32 0-13.26-5.96-13.26-13.28s5.94-13.28 13.26-13.28c7.34 0 13.28 5.96 13.28 13.28s-5.94 13.28-13.28 13.28z" fill="#23130D" p-id="10794"></path><path d="M613.8 691.62c0 7.32-5.94 13.28-13.28 13.28-7.32 0-13.26-5.96-13.26-13.28s5.94-13.28 13.26-13.28c7.34 0 13.28 5.96 13.28 13.28z" fill="#EC7063" p-id="10795"></path><path d="M606.04 703.68c-1.68 0.78-3.54 1.22-5.52 1.22-7.32 0-13.26-5.96-13.26-13.28s5.94-13.28 13.26-13.28c1.98 0 3.84 0.44 5.52 1.22-4.6 2.06-7.78 6.7-7.78 12.06s3.18 10 7.78 12.06z" opacity=".2" p-id="10796"></path><path d="M219.34 832c-20.96 0-38 17.04-38 38s17.04 38 38 38c20.94 0 38-17.04 38-38s-17.06-38-38-38z m0 56c-9.94 0-18-8.08-18-18s8.06-18 18-18c9.92 0 18 8.08 18 18s-8.08 18-18 18z" fill="#23130D" p-id="10797"></path><path d="M237.34 870c0 9.92-8.08 18-18 18-9.94 0-18-8.08-18-18s8.06-18 18-18c9.92 0 18 8.08 18 18z" fill="#E1E1E5" p-id="10798"></path><path d="M285.96 894.78c-15.78 0-28.62 12.86-28.62 28.64 0 15.8 12.84 28.64 28.62 28.64 15.8 0 28.64-12.84 28.64-28.64 0-15.78-12.84-28.64-28.64-28.64z m0 37.28c-4.76 0-8.62-3.88-8.62-8.64s3.86-8.64 8.62-8.64a8.642 8.642 0 0 1 0 17.28z" fill="#23130D" p-id="10799"></path><path d="M294.6 923.42c0 4.76-3.86 8.64-8.64 8.64-4.76 0-8.62-3.88-8.62-8.64s3.86-8.64 8.62-8.64c4.78 0 8.64 3.88 8.64 8.64z" fill="#E1E1E5" p-id="10800"></path><path d="M920.18 814.16v9.04h-41.86l-71.92-71.92v-50.92l57.74 57.76c-0.52 1.22-0.82 2.58-0.82 4 0 5.52 4.46 10 10 10h4.82l15.78 15.78a9.976 9.976 0 0 0-7.86 9.76c0 5.52 4.48 10 10 10h17.62l6.5 6.5zM898.32 843.2h21.86v21.86zM917.08 752.12h-39.14l-71.54-71.54v-39.14l80.7 80.7a10.004 10.004 0 0 0 8.96 14.44h5.48l15.54 15.54zM920.18 772.12v15.54h-6.7l-15.54-15.54zM920.18 665.5v15.54h-33.4l-80.38-80.38V535.6l74.36 74.36h-7.44c-5.54 0-10 4.48-10 10s4.46 10 10 10h27.44l15.54 15.54h-20.24c-5.52 0-10 4.46-10 10 0 5.52 4.48 10 10 10h24.12zM906.78 701.04h13.4v13.4z" fill="#FFFFFF" opacity=".4" p-id="10801"></path><path d="M148.8 783.32c-12.12 0-17.88-5.98-27.02-16.54-6.84-7.9-14.98-17.26-27.98-21.34l-1.9-1.9a195.76 195.76 0 0 1 14.84-50.72l71.38 71.38c-0.78 0.88-1.52 1.74-2.26 2.58-9.14 10.56-14.92 16.54-27.06 16.54zM367.74 953.8a195.85 195.85 0 0 1-50.68 14.9l-19.24-19.24c9.9-4.5 16.78-14.48 16.78-26.04 0-15.78-12.84-28.64-28.64-28.64-11.56 0-21.54 6.9-26.04 16.78l-14.22-14.22c7.18-6.92 11.64-16.62 11.64-27.34 0-20.96-17.06-38-38-38-10.72 0-20.42 4.46-27.34 11.64l-40.4-40.4c20.06-1.06 30.74-13.38 39.38-23.38 0.44-0.52 0.88-1.02 1.32-1.5l175.44 175.44zM218.02 743.32c-11.44 0-19.98 3.56-26.82 8.46l-75.92-75.9a197.046 197.046 0 0 1 20.66-29.76l101.12 101.14c-5.34-2.42-11.56-3.94-19.04-3.94zM414.34 924.52a196.19 196.19 0 0 1-29.7 20.7l-178.98-178.96c3.5-1.94 7.4-2.94 12.36-2.94 12.14 0 17.9 5.98 27.04 16.54 9.04 10.46 20.3 23.46 42.16 23.46 1.96 0 3.84-0.1 5.62-0.3l121.5 121.5zM356.44 743.32c-21.88 0-33.12 13-42.18 23.46-0.82 0.96-1.62 1.86-2.42 2.74l-149.46-149.46a195.634 195.634 0 0 1 52.92-30.86l156.66 156.66c-4.52-1.6-9.64-2.54-15.52-2.54zM471.34 845.24a198.026 198.026 0 0 1-30.94 52.84l-114.38-114.38c1.18-1.3 2.3-2.58 3.38-3.84 9.14-10.56 14.9-16.54 27.04-16.54 12.14 0 17.9 5.98 27.04 16.54 9.04 10.46 20.3 23.46 42.18 23.46 1.24 0 2.46-0.04 3.64-0.12l42.04 42.04z" fill="#FFFFFF" opacity=".4" p-id="10802"></path></svg>