<?xml version="1.0" standalone="no"?><!DOCTYPE svg PUBLIC "-//W3C//DTD SVG 1.1//EN" "http://www.w3.org/Graphics/SVG/1.1/DTD/svg11.dtd"><svg t="1585724855566" class="icon" viewBox="0 0 1024 1024" version="1.1" xmlns="http://www.w3.org/2000/svg" p-id="8097" xmlns:xlink="http://www.w3.org/1999/xlink" width="200" height="200"><defs><style type="text/css"></style></defs><path d="M480 480H272c-114.4 0-208-93.6-208-208S157.6 64 272 64s208 93.6 208 208v208zM544 480h208c114.4 0 208-93.6 208-208S866.4 64 752 64s-208 93.6-208 208v208zM544 544h208c114.4 0 208 93.6 208 208s-93.6 208-208 208-208-93.6-208-208V544zM480 544H272c-114.4 0-208 93.6-208 208s93.6 208 208 208 208-93.6 208-208V544z" fill="#C0C4CC" p-id="8098"></path></svg>