<?xml version="1.0" standalone="no"?><!DOCTYPE svg PUBLIC "-//W3C//DTD SVG 1.1//EN" "http://www.w3.org/Graphics/SVG/1.1/DTD/svg11.dtd"><svg t="1585724777159" class="icon" viewBox="0 0 1024 1024" version="1.1" xmlns="http://www.w3.org/2000/svg" p-id="7346" xmlns:xlink="http://www.w3.org/1999/xlink" width="200" height="200"><defs><style type="text/css"></style></defs><path d="M379.957 508.272c0 75.824 58.339 135.771 132.043 135.771s132.043-59.948 132.043-135.771c0-69.998-59.97-128.315-132.043-128.315s-132.043 58.316-132.043 128.315zM7.131 508.272c0 75.824 58.339 135.771 132.043 135.771s132.043-59.948 132.043-135.771c0-69.998-59.97-128.315-132.043-128.315s-132.043 58.316-132.043 128.315zM752.784 508.272c0 75.824 58.339 135.771 132.043 135.771s132.043-59.948 132.043-135.771c0-69.998-59.97-128.315-132.043-128.315s-132.043 58.316-132.043 128.315zM84.802 508.272c0-26.603 24.723-50.642 54.371-50.642s54.371 24.041 54.371 50.642c0 33.392-24.047 58.098-54.371 58.098s-54.371-24.707-54.371-58.098zM830.457 508.272c0-26.603 24.723-50.642 54.371-50.642s54.371 24.041 54.371 50.642c0 33.392-24.047 58.098-54.371 58.098s-54.371-24.707-54.371-58.098zM457.629 508.272c0-26.603 24.723-50.642 54.371-50.642s54.371 24.041 54.371 50.642c0 33.392-24.047 58.098-54.371 58.098s-54.371-24.707-54.371-58.098z" p-id="7347"></path></svg>