<?xml version="1.0" standalone="no"?><!DOCTYPE svg PUBLIC "-//W3C//DTD SVG 1.1//EN" "http://www.w3.org/Graphics/SVG/1.1/DTD/svg11.dtd"><svg t="1585729606865" class="icon" viewBox="0 0 1024 1024" version="1.1" xmlns="http://www.w3.org/2000/svg" p-id="7722" xmlns:xlink="http://www.w3.org/1999/xlink" width="200" height="200"><defs><style type="text/css"></style></defs><path d="M916.56 456.06h-52.58v-52.6c0-28.1-22.86-50.96-50.96-50.96h-135.14v-98.06c0-16.54-13.46-29.98-29.98-29.98h-9.92V188.36c0-69.46-56.52-125.96-125.98-125.96s-125.98 56.5-125.98 125.96v36.1h-9.92c-16.52 0-29.98 13.44-29.98 29.98v98.06H107.44c-28.1 0-50.96 22.86-50.96 50.96v403.64c0 28.1 22.86 50.98 50.96 50.98h52.6v52.56c0 28.1 22.86 50.96 50.96 50.96h705.56c13.56 0 26.36-5.3 36-14.96 9.66-9.64 14.96-22.42 14.96-36V677.96v-0.02V507.02c0-28.1-22.86-50.96-50.96-50.96z m-238.68-83.56H813.02c17.06 0 30.96 13.9 30.96 30.96v52.6h-166.1v-83.56zM406.02 188.36c0-58.42 47.54-105.96 105.98-105.96s105.98 47.54 105.98 105.96v36.1H406.02V188.36z m-39.9 66.08c0-5.5 4.48-9.98 9.98-9.98h271.8c5.5 0 9.98 4.48 9.98 9.98v201.62H366.12V254.44zM160.04 507.02v331.06h-52.6c-17.08 0-30.96-13.9-30.96-30.98V403.46c0-17.06 13.88-30.96 30.96-30.96h238.68v83.56H211c-28.1 0-50.96 22.86-50.96 50.96z m787.48 403.62c0 17.08-13.88 30.96-30.96 30.96H211c-17.06 0-30.96-13.88-30.96-30.96V687.94h767.48v222.7z m0-242.7H180.04v-89.48h767.48v89.48z m0-109.48H180.04v-51.44c0-17.08 13.9-30.96 30.96-30.96h705.56c17.08 0 30.96 13.88 30.96 30.96v51.44z" fill="#23130D" p-id="7723"></path><path d="M180.04 578.46h767.48v89.48H180.04z" fill="#3594BF" p-id="7724"></path><path d="M937.52 588.46v69.48H190.04v-69.48h747.48m10-10H180.04v89.48h767.48v-89.48z" opacity=".2" p-id="7725"></path><path d="M180.04 687.94v222.7c0 17.08 13.9 30.96 30.96 30.96h705.56c17.08 0 30.96-13.88 30.96-30.96V687.94H180.04z m114.42 208.96h-39c-5.52 0-10-4.48-10-10s4.48-10 10-10h39c5.52 0 10 4.48 10 10s-4.48 10-10 10z m82.52 0h-39c-5.52 0-10-4.48-10-10s4.48-10 10-10h39c5.52 0 10 4.48 10 10s-4.48 10-10 10z m82.52 0h-39c-5.52 0-10-4.48-10-10s4.48-10 10-10h39c5.52 0 10 4.48 10 10s-4.48 10-10 10z m21.54-129.48H255.46c-5.52 0-10-4.48-10-10s4.48-10 10-10h225.58c5.52 0 10 4.48 10 10s-4.48 10-10 10z m60.98 129.48h-39c-5.52 0-10-4.48-10-10s4.48-10 10-10h39c5.52 0 10 4.48 10 10s-4.48 10-10 10z m82.52 0h-39c-5.52 0-10-4.48-10-10s4.48-10 10-10h39c5.52 0 10 4.48 10 10s-4.48 10-10 10z m82.52 0h-39c-5.52 0-10-4.48-10-10s4.48-10 10-10h39c5.52 0 10 4.48 10 10s-4.48 10-10 10z m11.94-129.48h-176.98c-5.52 0-10-4.48-10-10s4.48-10 10-10h176.98c5.54 0 10 4.48 10 10s-4.46 10-10 10z m70.58 129.48h-39c-5.52 0-10-4.48-10-10s4.48-10 10-10h39c5.52 0 10 4.48 10 10s-4.48 10-10 10z m82.52 0h-39c-5.52 0-10-4.48-10-10s4.48-10 10-10h39c5.52 0 10 4.48 10 10s-4.48 10-10 10zM947.52 507.02v51.44H180.04v-51.44c0-17.08 13.9-30.96 30.96-30.96h705.56c17.08 0 30.96 13.88 30.96 30.96z" fill="#E1E1E5" p-id="7726"></path><path d="M346.12 372.5v83.56H211c-28.1 0-50.96 22.86-50.96 50.96v331.06h-52.6c-17.08 0-30.96-13.9-30.96-30.98V403.46c0-17.06 13.88-30.96 30.96-30.96h238.68z" fill="#F9C139" p-id="7727"></path><path d="M346.12 372.5v83.56H211c-28.1 0-50.96 22.86-50.96 50.96v331.06h-52.6c-12.54 0-23.36-7.5-28.2-18.24 3.88 1.76 8.18 2.74 12.7 2.74h52.6V491.52c0-28.1 22.86-50.96 50.96-50.96h135.12v-68.06h15.5z" fill="#23130D" opacity=".2" p-id="7728"></path><path d="M843.98 403.46v52.6h-166.1v-83.56H813.02c17.06 0 30.96 13.9 30.96 30.96z" fill="#F9C139" p-id="7729"></path><path d="M843.98 440.94v15.12h-166.1v-83.56H693v68.44h150.98z" fill="#23130D" opacity=".2" p-id="7730"></path><path d="M647.9 244.46H396.04h-0.02H376.1c-5.5 0-9.98 4.48-9.98 9.98v201.62h291.76v-93.52-0.04-108.06c0-5.5-4.48-9.98-9.98-9.98z m-101.86 118.52v44.3c0 18.76-15.28 34.04-34.04 34.04-18.78 0-34.04-15.28-34.04-34.04v-44.3c-13.52-10.46-21.42-26.44-21.42-43.78 0-30.58 24.88-55.46 55.46-55.46s55.46 24.88 55.46 55.46c0 17.34-7.92 33.32-21.42 43.78z" fill="#EC7063" p-id="7731"></path><path d="M396.04 244.46h-0.02H376.1c-5.5 0-9.98 4.48-9.98 9.98v201.62h26V254.44c0-5.5 4.48-9.98 9.98-9.98h-6.06z" fill="#FFFFFF" opacity=".4" p-id="7732"></path><path d="M647.9 244.46H621.9c5.5 0 9.98 4.48 9.98 9.98v201.62h26v-93.52-0.04-108.06c0-5.5-4.48-9.98-9.98-9.98z" fill="#23130D" opacity=".2" p-id="7733"></path><path d="M512 263.74c-30.58 0-55.46 24.88-55.46 55.46 0 17.34 7.9 33.32 21.42 43.78v44.3c0 18.76 15.26 34.04 34.04 34.04 18.76 0 34.04-15.28 34.04-34.04v-44.3c13.5-10.46 21.42-26.44 21.42-43.78 0-30.58-24.88-55.46-55.46-55.46z m18.74 85.54a10.044 10.044 0 0 0-4.7 8.5v49.5c0 7.74-6.3 14.04-14.04 14.04s-14.04-6.3-14.04-14.04v-49.5c0-3.46-1.78-6.66-4.72-8.5-10.46-6.52-16.7-17.76-16.7-30.08 0-19.56 15.9-35.46 35.46-35.46s35.46 15.9 35.46 35.46c0 12.32-6.24 23.56-16.72 30.08zM491.04 757.42c0 5.52-4.48 10-10 10H255.46c-5.52 0-10-4.48-10-10s4.48-10 10-10h225.58c5.52 0 10 4.48 10 10zM729 757.42c0 5.52-4.46 10-10 10h-176.98c-5.52 0-10-4.48-10-10s4.48-10 10-10h176.98c5.54 0 10 4.48 10 10zM304.46 886.9c0 5.52-4.48 10-10 10h-39c-5.52 0-10-4.48-10-10s4.48-10 10-10h39c5.52 0 10 4.48 10 10zM386.98 886.9c0 5.52-4.48 10-10 10h-39c-5.52 0-10-4.48-10-10s4.48-10 10-10h39c5.52 0 10 4.48 10 10zM469.5 886.9c0 5.52-4.48 10-10 10h-39c-5.52 0-10-4.48-10-10s4.48-10 10-10h39c5.52 0 10 4.48 10 10zM552.02 886.9c0 5.52-4.48 10-10 10h-39c-5.52 0-10-4.48-10-10s4.48-10 10-10h39c5.52 0 10 4.48 10 10zM634.54 886.9c0 5.52-4.48 10-10 10h-39c-5.52 0-10-4.48-10-10s4.48-10 10-10h39c5.52 0 10 4.48 10 10zM717.06 886.9c0 5.52-4.48 10-10 10h-39c-5.52 0-10-4.48-10-10s4.48-10 10-10h39c5.52 0 10 4.48 10 10zM799.58 886.9c0 5.52-4.48 10-10 10h-39c-5.52 0-10-4.48-10-10s4.48-10 10-10h39c5.52 0 10 4.48 10 10zM882.1 886.9c0 5.52-4.48 10-10 10h-39c-5.52 0-10-4.48-10-10s4.48-10 10-10h39c5.52 0 10 4.48 10 10z" fill="#23130D" p-id="7734"></path></svg>