<?xml version="1.0" standalone="no"?><!DOCTYPE svg PUBLIC "-//W3C//DTD SVG 1.1//EN" "http://www.w3.org/Graphics/SVG/1.1/DTD/svg11.dtd"><svg t="1585729530989" class="icon" viewBox="0 0 1024 1024" version="1.1" xmlns="http://www.w3.org/2000/svg" p-id="5037" xmlns:xlink="http://www.w3.org/1999/xlink" width="200" height="200"><defs><style type="text/css"></style></defs><path d="M931.84 729.088c0 22.528-18.432 40.96-40.96 40.96H133.12c-22.528 0-40.96-18.432-40.96-40.96V133.12c0-22.528 18.432-40.96 40.96-40.96h757.76c22.528 0 40.96 18.432 40.96 40.96v595.968z" fill="#71CCFF" p-id="5038"></path><path d="M133.12 311.296c-5.7344 0-10.24-4.5056-10.24-10.24v-24.576c0-5.7344 4.5056-10.24 10.24-10.24s10.24 4.5056 10.24 10.24v24.576c0 5.7344-4.5056 10.24-10.24 10.24zM133.12 639.3856c-5.7344 0-10.24-4.5056-10.24-10.24V352.256c0-5.7344 4.5056-10.24 10.24-10.24s10.24 4.5056 10.24 10.24v276.8896c0 5.5296-4.5056 10.24-10.24 10.24z" fill="#C0E7F9" p-id="5039"></path><path d="M415.1296 593.7152c1.2288-3.6864 1.8432-7.7824 1.8432-11.8784 0-21.2992-17.2032-38.5024-38.5024-38.5024s-38.5024 17.2032-38.5024 38.5024c0 4.096 0.6144 8.192 1.8432 11.8784-17.2032 3.8912-30.1056 19.2512-30.1056 37.6832 0 21.2992 17.2032 38.5024 38.5024 38.5024 11.264 0 21.2992-4.7104 28.2624-12.288 6.9632 7.5776 17.2032 12.288 28.2624 12.288 21.2992 0 38.5024-17.2032 38.5024-38.5024 0-18.432-12.9024-33.792-30.1056-37.6832z" fill="#08B26C" p-id="5040"></path><path d="M548.6592 593.7152c1.2288-3.6864 1.8432-7.7824 1.8432-11.8784 0-21.2992-17.2032-38.5024-38.5024-38.5024s-38.5024 17.2032-38.5024 38.5024c0 4.096 0.6144 8.192 1.8432 11.8784-17.2032 3.8912-30.1056 19.2512-30.1056 37.6832 0 21.2992 17.2032 38.5024 38.5024 38.5024 11.264 0 21.2992-4.7104 28.2624-12.288 6.9632 7.5776 17.2032 12.288 28.2624 12.288 21.2992 0 38.5024-17.2032 38.5024-38.5024 0-18.432-12.9024-33.792-30.1056-37.6832zM682.3936 593.7152c1.2288-3.6864 1.8432-7.7824 1.8432-11.8784 0-21.2992-17.2032-38.5024-38.5024-38.5024s-38.5024 17.2032-38.5024 38.5024c0 4.096 0.6144 8.192 1.8432 11.8784-17.2032 3.8912-30.1056 19.2512-30.1056 37.6832 0 21.2992 17.2032 38.5024 38.5024 38.5024 11.264 0 21.2992-4.7104 28.2624-12.288 6.9632 7.5776 17.2032 12.288 28.2624 12.288 21.2992 0 38.5024-17.2032 38.5024-38.5024 0-18.432-12.9024-33.792-30.1056-37.6832z" fill="#08B26C" p-id="5041"></path><path d="M406.7328 680.1408c-10.24 0-20.0704-3.2768-28.2624-9.0112-8.192 5.7344-18.0224 9.0112-28.2624 9.0112-26.8288 0-48.7424-21.9136-48.7424-48.7424 0-19.2512 11.4688-36.4544 28.4672-44.4416-0.2048-1.6384-0.2048-3.2768-0.2048-5.12 0-26.8288 21.9136-48.7424 48.7424-48.7424s48.7424 21.9136 48.7424 48.7424c0 1.6384 0 3.4816-0.2048 5.12 16.9984 7.7824 28.4672 25.1904 28.4672 44.4416 0 26.8288-21.9136 48.7424-48.7424 48.7424zM378.2656 647.168c2.8672 0 5.5296 1.2288 7.5776 3.2768 5.3248 5.9392 12.9024 9.0112 20.6848 9.0112 15.5648 0 28.2624-12.6976 28.2624-28.2624 0-13.1072-9.216-24.7808-22.1184-27.648-2.8672-0.6144-5.3248-2.4576-6.7584-4.9152-1.4336-2.4576-1.8432-5.5296-0.8192-8.192 0.8192-2.8672 1.4336-5.7344 1.4336-8.6016 0-15.5648-12.6976-28.2624-28.2624-28.2624s-28.2624 12.6976-28.2624 28.2624c0 2.8672 0.4096 5.9392 1.4336 8.6016 0.8192 2.6624 0.6144 5.7344-0.8192 8.192-1.4336 2.4576-3.8912 4.3008-6.7584 4.9152-12.9024 2.8672-22.1184 14.5408-22.1184 27.648 0 15.5648 12.6976 28.2624 28.2624 28.2624 7.9872 0 15.36-3.2768 20.6848-9.0112 2.048-2.048 4.9152-3.2768 7.5776-3.2768z" fill="#231F20" p-id="5042"></path><path d="M540.2624 680.1408c-10.24 0-20.0704-3.2768-28.2624-9.0112-8.192 5.7344-18.0224 9.0112-28.2624 9.0112-26.8288 0-48.7424-21.9136-48.7424-48.7424 0-19.2512 11.4688-36.4544 28.4672-44.4416-0.2048-1.6384-0.2048-3.2768-0.2048-5.12 0-26.8288 21.9136-48.7424 48.7424-48.7424s48.7424 21.9136 48.7424 48.7424c0 1.6384 0 3.4816-0.2048 5.12 16.9984 7.7824 28.4672 25.1904 28.4672 44.4416 0 26.8288-21.9136 48.7424-48.7424 48.7424zM512 647.168c2.8672 0 5.5296 1.2288 7.5776 3.2768 5.3248 5.9392 12.6976 9.0112 20.6848 9.0112 15.5648 0 28.2624-12.6976 28.2624-28.2624 0-13.1072-9.216-24.7808-22.1184-27.648-2.8672-0.6144-5.3248-2.4576-6.7584-4.9152-1.4336-2.4576-1.8432-5.5296-0.8192-8.192 0.8192-2.8672 1.4336-5.7344 1.4336-8.6016 0-15.5648-12.6976-28.2624-28.2624-28.2624s-28.2624 12.6976-28.2624 28.2624c0 2.8672 0.4096 5.9392 1.4336 8.6016 0.8192 2.6624 0.6144 5.7344-0.8192 8.192-1.4336 2.4576-3.8912 4.3008-6.7584 4.9152-12.9024 2.8672-22.1184 14.5408-22.1184 27.648 0 15.5648 12.6976 28.2624 28.2624 28.2624 7.9872 0 15.36-3.2768 20.6848-9.0112 2.048-2.048 4.7104-3.2768 7.5776-3.2768z" fill="#231F20" p-id="5043"></path><path d="M673.9968 680.1408c-10.24 0-20.0704-3.2768-28.2624-9.0112-8.192 5.7344-18.0224 9.0112-28.2624 9.0112-26.8288 0-48.7424-21.9136-48.7424-48.7424 0-19.2512 11.4688-36.4544 28.4672-44.4416-0.2048-1.6384-0.2048-3.2768-0.2048-5.12 0-26.8288 21.9136-48.7424 48.7424-48.7424s48.7424 21.9136 48.7424 48.7424c0 1.6384 0 3.4816-0.2048 5.12 16.9984 7.7824 28.4672 25.1904 28.4672 44.4416 0 26.8288-21.9136 48.7424-48.7424 48.7424zM645.7344 647.168c2.8672 0 5.5296 1.2288 7.5776 3.2768 5.3248 5.9392 12.6976 9.0112 20.6848 9.0112 15.5648 0 28.2624-12.6976 28.2624-28.2624 0-13.1072-9.216-24.7808-22.1184-27.648-2.8672-0.6144-5.3248-2.4576-6.7584-4.9152-1.4336-2.4576-1.8432-5.5296-0.8192-8.192 0.8192-2.8672 1.4336-5.7344 1.4336-8.6016 0-15.5648-12.6976-28.2624-28.2624-28.2624s-28.2624 12.6976-28.2624 28.2624c0 2.8672 0.4096 5.9392 1.4336 8.6016 0.8192 2.6624 0.6144 5.7344-0.8192 8.192-1.4336 2.4576-3.8912 4.3008-6.7584 4.9152-12.9024 2.8672-22.1184 14.5408-22.1184 27.648 0 15.5648 12.6976 28.2624 28.2624 28.2624 7.9872 0 15.36-3.2768 20.6848-9.0112 1.8432-2.048 4.7104-3.2768 7.5776-3.2768zM378.2656 780.0832c-5.7344 0-10.24-4.5056-10.24-10.24V657.408c0-5.7344 4.5056-10.24 10.24-10.24s10.24 4.5056 10.24 10.24v112.4352c0 5.7344-4.5056 10.24-10.24 10.24zM512 780.0832c-5.7344 0-10.24-4.5056-10.24-10.24V657.408c0-5.7344 4.5056-10.24 10.24-10.24s10.24 4.5056 10.24 10.24v112.4352c0 5.7344-4.5056 10.24-10.24 10.24z" fill="#231F20" p-id="5044"></path><path d="M645.7344 780.0832c-5.7344 0-10.24-4.5056-10.24-10.24V657.408c0-5.7344 4.5056-10.24 10.24-10.24s10.24 4.5056 10.24 10.24v112.4352c0 5.7344-4.7104 10.24-10.24 10.24z" fill="#231F20" p-id="5045"></path><path d="M931.84 10.24H92.16C46.8992 10.24 10.24 46.8992 10.24 92.16v839.68c0 45.2608 36.6592 81.92 81.92 81.92h839.68c45.2608 0 81.92-36.6592 81.92-81.92V92.16c0-45.2608-36.6592-81.92-81.92-81.92z m0 718.848c0 22.528-18.432 40.96-40.96 40.96H133.12c-22.528 0-40.96-18.432-40.96-40.96V133.12c0-22.528 18.432-40.96 40.96-40.96h757.76c22.528 0 40.96 18.432 40.96 40.96v595.968z" fill="#7A7979" p-id="5046"></path><path d="M931.84 1024H92.16c-50.7904 0-92.16-41.3696-92.16-92.16V543.3344c0-5.7344 4.5056-10.24 10.24-10.24s10.24 4.5056 10.24 10.24V931.84c0 39.5264 32.1536 71.68 71.68 71.68h839.68c39.5264 0 71.68-32.1536 71.68-71.68V92.16c0-39.5264-32.1536-71.68-71.68-71.68H92.16c-39.5264 0-71.68 32.1536-71.68 71.68v54.272c0 5.7344-4.5056 10.24-10.24 10.24s-10.24-4.5056-10.24-10.24V92.16C0 41.3696 41.3696 0 92.16 0h839.68c50.7904 0 92.16 41.3696 92.16 92.16v839.68c0 50.7904-41.3696 92.16-92.16 92.16z" fill="#231F20" p-id="5047"></path><path d="M10.24 495.0016c-5.7344 0-10.24-4.5056-10.24-10.24V276.48c0-5.7344 4.5056-10.24 10.24-10.24s10.24 4.5056 10.24 10.24v208.2816c0 5.7344-4.5056 10.24-10.24 10.24zM10.24 238.592c-5.7344 0-10.24-4.5056-10.24-10.24v-20.48c0-5.7344 4.5056-10.24 10.24-10.24s10.24 4.5056 10.24 10.24v20.48c0 5.7344-4.5056 10.24-10.24 10.24zM890.88 780.288H133.12c-28.2624 0-51.2-22.9376-51.2-51.2V133.12c0-28.2624 22.9376-51.2 51.2-51.2h757.76c28.2624 0 51.2 22.9376 51.2 51.2v595.968c0 28.2624-22.9376 51.2-51.2 51.2zM133.12 102.4c-16.9984 0-30.72 13.7216-30.72 30.72v595.968c0 16.9984 13.7216 30.72 30.72 30.72h757.76c16.9984 0 30.72-13.7216 30.72-30.72V133.12c0-16.9984-13.7216-30.72-30.72-30.72H133.12z" fill="#231F20" p-id="5048"></path><path d="M512 891.4944m-55.5008 0a55.5008 55.5008 0 1 0 111.0016 0 55.5008 55.5008 0 1 0-111.0016 0Z" fill="#F9B630" p-id="5049"></path><path d="M512 957.0304c-36.2496 0-65.7408-29.4912-65.7408-65.7408s29.4912-65.7408 65.7408-65.7408 65.7408 29.4912 65.7408 65.7408-29.4912 65.7408-65.7408 65.7408z m0-110.7968c-24.9856 0-45.2608 20.2752-45.2608 45.2608 0 24.9856 20.2752 45.2608 45.2608 45.2608 24.9856 0 45.2608-20.2752 45.2608-45.2608 0-24.9856-20.2752-45.2608-45.2608-45.2608z" fill="#231F20" p-id="5050"></path><path d="M217.4976 932.4544h120.0128c22.7328 0 41.1648-18.432 41.1648-41.1648 0-22.7328-18.432-41.1648-41.1648-41.1648h-120.0128c-22.7328 0-41.1648 18.432-41.1648 41.1648 0 22.9376 18.432 41.1648 41.1648 41.1648zM686.4896 932.4544h120.0128c22.7328 0 41.1648-18.432 41.1648-41.1648 0-22.7328-18.432-41.1648-41.1648-41.1648h-120.0128c-22.7328 0-41.1648 18.432-41.1648 41.1648 0 22.9376 18.432 41.1648 41.1648 41.1648z" fill="#C9C9C9" p-id="5051"></path><path d="M337.5104 942.6944h-120.0128c-28.2624 0-51.4048-22.9376-51.4048-51.4048 0-28.2624 22.9376-51.4048 51.4048-51.4048h120.0128c28.2624 0 51.4048 22.9376 51.4048 51.4048 0 28.4672-23.1424 51.4048-51.4048 51.4048z m-120.0128-82.1248c-16.9984 0-30.9248 13.9264-30.9248 30.9248s13.9264 30.9248 30.9248 30.9248h120.0128c16.9984 0 30.9248-13.9264 30.9248-30.9248s-13.9264-30.9248-30.9248-30.9248h-120.0128zM806.5024 942.6944h-120.0128c-28.2624 0-51.4048-22.9376-51.4048-51.4048 0-28.2624 22.9376-51.4048 51.4048-51.4048h120.0128c28.2624 0 51.4048 22.9376 51.4048 51.4048 0 28.4672-23.1424 51.4048-51.4048 51.4048z m-120.0128-82.1248c-16.9984 0-30.9248 13.9264-30.9248 30.9248s13.9264 30.9248 30.9248 30.9248h120.0128c16.9984 0 30.9248-13.9264 30.9248-30.9248s-13.9264-30.9248-30.9248-30.9248h-120.0128zM303.5136 398.9504c-9.8304 0-19.0464-4.7104-24.576-12.9024l-75.776-109.1584c-26.4192-38.0928-29.696-85.6064-8.6016-126.976 20.6848-40.7552 60.2112-65.7408 105.472-66.9696h7.168c45.4656 1.2288 84.7872 26.2144 105.472 66.9696 21.0944 41.3696 17.8176 88.8832-8.6016 126.976l-75.776 109.1584c-5.7344 8.192-14.9504 12.9024-24.7808 12.9024z m0-295.5264h-3.072c-37.6832 1.024-70.656 21.9136-87.8592 55.7056-17.6128 34.6112-14.9504 74.3424 7.168 106.0864l75.776 109.1584c1.8432 2.6624 4.7104 4.096 7.7824 4.096s5.9392-1.4336 7.7824-4.096l75.776-109.1584c22.1184-31.744 24.7808-71.4752 7.168-106.0864-17.2032-33.9968-49.9712-54.8864-87.8592-55.7056h-2.6624z m0 161.3824c-32.9728 0-59.8016-26.8288-59.8016-59.8016s26.8288-59.8016 59.8016-59.8016 59.8016 26.8288 59.8016 59.8016-26.8288 59.8016-59.8016 59.8016z m0-99.1232c-21.7088 0-39.3216 17.6128-39.3216 39.3216s17.6128 39.3216 39.3216 39.3216 39.3216-17.6128 39.3216-39.3216-17.6128-39.3216-39.3216-39.3216z" fill="#231F20" p-id="5052"></path><path d="M181.248 336.6912H931.84v105.8816H181.248z" fill="#C9C9C9" p-id="5053"></path><path d="M207.2576 336.6912l46.4896 66.9696c11.264 16.384 29.9008 26.0096 49.7664 26.0096 19.8656 0 38.5024-9.8304 49.7664-26.0096l46.4896-66.9696h-192.512z" fill="#A0A0A0" p-id="5054"></path><path d="M931.84 452.8128H181.248c-5.7344 0-10.24-4.5056-10.24-10.24s4.5056-10.24 10.24-10.24H921.6v-85.4016H181.248c-5.7344 0-10.24-4.5056-10.24-10.24s4.5056-10.24 10.24-10.24H931.84c5.7344 0 10.24 4.5056 10.24 10.24v105.8816c0 5.7344-4.5056 10.24-10.24 10.24z" fill="#231F20" p-id="5055"></path><path d="M306.7904 93.184h-6.5536c-89.4976 2.2528-139.8784 104.448-88.6784 177.9712l75.776 109.1584c7.7824 11.264 24.576 11.264 32.3584 0l75.776-109.1584c51.2-73.5232 0.8192-175.7184-88.6784-177.9712z m-3.2768 161.3824c-27.4432 0-49.5616-22.3232-49.5616-49.5616 0-27.4432 22.3232-49.5616 49.5616-49.5616 27.4432 0 49.5616 22.3232 49.5616 49.5616 0 27.4432-22.1184 49.5616-49.5616 49.5616z" fill="#F9B630" p-id="5056"></path><path d="M303.5136 398.9504c-9.8304 0-19.0464-4.7104-24.576-12.9024l-75.776-109.1584c-26.4192-38.0928-29.696-85.6064-8.6016-126.976 20.6848-40.7552 60.2112-65.7408 105.472-66.9696h7.168c45.4656 1.2288 84.7872 26.2144 105.472 66.9696 21.0944 41.3696 17.8176 88.8832-8.6016 126.976l-75.776 109.1584c-5.7344 8.192-14.9504 12.9024-24.7808 12.9024z m0-295.5264h-3.072c-37.6832 1.024-70.656 21.9136-87.8592 55.7056-17.6128 34.6112-14.9504 74.3424 7.168 106.0864l75.776 109.1584c1.8432 2.6624 4.7104 4.096 7.7824 4.096s5.9392-1.4336 7.7824-4.096l75.776-109.1584c22.1184-31.744 24.7808-71.4752 7.168-106.0864-17.2032-33.9968-49.9712-54.8864-87.8592-55.7056h-2.6624z" fill="#231F20" p-id="5057"></path><path d="M303.5136 264.8064c-32.9728 0-59.8016-26.8288-59.8016-59.8016s26.8288-59.8016 59.8016-59.8016 59.8016 26.8288 59.8016 59.8016-26.8288 59.8016-59.8016 59.8016z m0-99.1232c-21.7088 0-39.3216 17.6128-39.3216 39.3216s17.6128 39.3216 39.3216 39.3216 39.3216-17.6128 39.3216-39.3216-17.6128-39.3216-39.3216-39.3216z" fill="#231F20" p-id="5058"></path><path d="M51.2 188.2112c-5.7344 0-10.24-4.5056-10.24-10.24V154.4192c0-5.7344 4.5056-10.24 10.24-10.24s10.24 4.5056 10.24 10.24v23.552c0 5.7344-4.5056 10.24-10.24 10.24zM384.8192 983.04H102.4c-33.792 0-61.44-27.648-61.44-61.44V253.7472c0-5.7344 4.5056-10.24 10.24-10.24s10.24 4.5056 10.24 10.24V921.6c0 22.528 18.432 40.96 40.96 40.96h282.4192c5.7344 0 10.24 4.5056 10.24 10.24s-4.7104 10.24-10.24 10.24z" fill="#C9C9C9" p-id="5059"></path></svg>