<?xml version="1.0" standalone="no"?><!DOCTYPE svg PUBLIC "-//W3C//DTD SVG 1.1//EN" "http://www.w3.org/Graphics/SVG/1.1/DTD/svg11.dtd"><svg t="1585723384659" class="icon" viewBox="0 0 1024 1024" version="1.1" xmlns="http://www.w3.org/2000/svg" p-id="5473" xmlns:xlink="http://www.w3.org/1999/xlink" width="200" height="200"><defs><style type="text/css"></style></defs><path d="M541.2 220.032h-58.4v-136.2h58.4z" fill="#59C3F0" p-id="5474"></path><path d="M541.188 220.032h-29.2v-136.2h29.2z" fill="#21A0D6" p-id="5475"></path><path d="M541.2 229.8h-58.4c-5.4 0-9.8-4.4-9.8-9.8V84c0-5.4 4.4-9.8 9.8-9.8h58.4c5.4 0 9.8 4.4 9.8 9.8v136.2c0 5.2-4.4 9.6-9.8 9.6z m-48.6-19.4h39V93.6h-39v116.8z" fill="#402943" p-id="5476"></path><path d="M482.8 210.4c-3.2 0-6.2-1.6-8.2-4.4-3-4.4-1.8-10.6 2.6-13.4l58.4-39c4.4-3 10.6-1.8 13.4 2.6 3 4.4 1.8 10.6-2.6 13.4L488 208.6c-1.4 1.2-3.4 1.8-5.2 1.8zM482.8 152c-3.2 0-6.2-1.6-8.2-4.4-3-4.4-1.8-10.6 2.6-13.4l58.4-39c4.4-3 10.6-1.8 13.4 2.6 3 4.4 1.8 10.6-2.6 13.4L488 150.2c-1.4 1.2-3.4 1.8-5.2 1.8z" fill="#402943" p-id="5477"></path><path d="M453.6 259h116.8v77.8h-116.8z" fill="#E6E7E8" p-id="5478"></path><path d="M512 259h58.4v77.8H512z" fill="#BCBEC0" p-id="5479"></path><path d="M570.4 346.6h-116.8c-5.4 0-9.8-4.4-9.8-9.8v-77.8c0-5.4 4.4-9.8 9.8-9.8h116.8c5.4 0 9.8 4.4 9.8 9.8v77.8c0 5.4-4.4 9.8-9.8 9.8z m-107-19.4h97.2v-58.4h-97.2v58.4z" fill="#402943" p-id="5480"></path><path d="M512 341.8c-2.6 0-4.8-2.2-4.8-4.8v-77.8c0-2.6 2.2-4.8 4.8-4.8 2.6 0 4.8 2.2 4.8 4.8v77.8c0 2.6-2.2 4.8-4.8 4.8z" fill="#402943" p-id="5481"></path><path d="M609.2 259h-194.4l-19.6-38.8h233.6z" fill="#FCD64B" p-id="5482"></path><path d="M589.8 220.2l-19.4 38.8h38.8l19.6-38.8z" fill="#F5AB33" p-id="5483"></path><path d="M434.2 220.2l19.4 38.8h-38.8l-19.6-38.8z" fill="#FFECA6" p-id="5484"></path><path d="M609.2 268.8h-194.6c-3.6 0-7-2-8.8-5.4l-19.4-39c-1.6-3-1.4-6.6 0.4-9.4 1.8-2.8 5-4.6 8.2-4.6h233.6c3.4 0 6.6 1.8 8.2 4.6 1.8 2.8 2 6.4 0.4 9.4l-19.4 39c-1.4 3.2-4.8 5.4-8.6 5.4z m-188.4-19.4h182.6l9.8-19.4h-202l9.6 19.4z" fill="#402943" p-id="5485"></path><path d="M512 268.8c-16 0-29.2-13-29.2-29.2s13-29.2 29.2-29.2c16 0 29.2 13 29.2 29.2s-13.2 29.2-29.2 29.2z m0-39c-5.4 0-9.8 4.4-9.8 9.8s4.4 9.8 9.8 9.8 9.8-4.4 9.8-9.8-4.4-9.8-9.8-9.8z" fill="#402943" p-id="5486"></path><path d="M765 670.4c0 137.2-121 250.8-253 269.6-132-18.8-253-132.4-253-269.6V414.6c43 0 77.8-34.8 77.8-77.8h350.2c0 43 34.8 77.8 77.8 77.8l0.2 255.8z" fill="#59C3F0" p-id="5487"></path><path d="M765 414.8c-43 0-77.8-34.8-77.8-77.8h-39c0 43 34.8 77.8 77.8 77.8v255.8c0 130.4-109.2 239.4-233.4 266.2 6.4 1.4 13 2.6 19.4 3.4 132-18.8 253-132.4 253-269.6V414.8z" fill="#21A0D6" p-id="5488"></path><path d="M259 414.8c43 0 77.8-34.8 77.8-77.8h39c0 43-34.8 77.8-77.8 77.8v255.8c0 130.4 109.2 239.4 233.4 266.2-6.4 1.4-13 2.6-19.4 3.4-132-18.8-253-132.4-253-269.6V414.8z" fill="#96DCFA" p-id="5489"></path><path d="M512 949.8h-1.4c-66.8-9.6-133-43.6-181.6-93.2-51.4-52.6-79.8-118.8-79.8-186V414.8c0-5.4 4.4-9.8 9.8-9.8 37.6 0 68-30.6 68-68 0-5.4 4.4-9.8 9.8-9.8h350.2c5.4 0 9.8 4.4 9.8 9.8 0 37.6 30.6 68 68 68 5.4 0 9.8 4.4 9.8 9.8v255.8c0 67.2-28.4 133.4-79.8 186-48.6 49.8-114.6 83.8-181.6 93.2h-1.2z m-243.2-526v246.6c0 123.6 109 240 243.2 259.8 134.2-19.8 243.2-136.2 243.2-259.8V423.8c-40.6-4.6-72.8-36.8-77.2-77.2H346c-4.4 40.6-36.8 72.8-77.2 77.2z" fill="#402943" p-id="5490"></path><path d="M307.6 453.6v216.8c0 108.2 98.4 201.8 204.4 220.4 105.8-18.6 204.4-112 204.4-220.4V453.6c-30.6-12.8-55.2-37.4-68-68H375.8c-12.8 30.6-37.4 55.2-68.2 68z" fill="#FFFFFF" p-id="5491"></path><path d="M648.2 385.6H512v505.4c105.8-18.6 204.4-112 204.4-220.4V453.8c-30.8-13-55.4-37.6-68.2-68.2z" fill="#E6E7E8" p-id="5492"></path><path d="M346.6 670.4V453.6c30.6-12.8 55.2-37.4 68-68h-39c-12.8 30.6-37.4 55.2-68 68v216.8c0 108.2 98.4 201.8 204.4 220.4 6.6-1.2 13-2.6 19.4-4.2-98.2-26-184.8-114.6-184.8-216.2z" fill="#E6E7E8" p-id="5493"></path><path d="M512 900.6c-0.6 0-1.2 0-1.6-0.2-54-9.4-107.6-38.4-147.2-79.4-42-43.6-65.2-97-65.2-150.6V453.6c0-4 2.4-7.4 6-9 28.2-11.8 51-34.8 62.8-62.8 1.6-3.6 5-6 9-6h272.4c4 0 7.4 2.4 9 6 11.8 28.2 34.8 51 62.8 62.8 3.6 1.6 6 5 6 9v216.8c0 53.6-23.2 107-65.2 150.6-39.6 41-93.2 70-147.2 79.4-0.4 0.2-1 0.2-1.6 0.2zM317.4 460v210.6c0 108.2 100.6 193.2 194.6 210.6 94-17.2 194.6-102.2 194.6-210.6V460c-28.2-13.4-51.2-36.6-64.6-64.6H382c-13.4 28-36.4 51-64.6 64.6z" fill="#402943" p-id="5494"></path><path d="M512 515.2l30.6 62 68.4 9.8-49.6 48.2 11.8 68.2-61.2-32.2-61.2 32.2 11.8-68.2-49.6-48.2 68.4-9.8z" fill="#FCD64B" p-id="5495"></path><path d="M542.6 577.2l-30.6-62v156l61.2 32.2-11.8-68.2 49.6-48.2zM492.6 671.2l-39.8 21-2 11.2 51.4-27z" fill="#F5AB33" p-id="5496"></path><path d="M573.2 713c-1.6 0-3.2-0.4-4.6-1.2L512 682.2 455.4 712c-3.2 1.8-7.2 1.4-10.2-0.8-3-2.2-4.4-5.8-3.8-9.6l10.8-63-46-44.6c-2.6-2.6-3.6-6.4-2.4-10 1.2-3.6 4.2-6 7.8-6.6l63.2-9.2 28.4-57.4c1.6-3.4 5-5.4 8.8-5.4 3.8 0 7 2.2 8.8 5.4l28.2 57.4 63.2 9.2c3.6 0.6 6.8 3 7.8 6.6 1.2 3.6 0.2 7.4-2.4 10L572 638.6l10.8 63c0.6 3.6-0.8 7.4-3.8 9.6-1.8 1.2-3.8 1.8-5.8 1.8zM512 661.4c1.6 0 3.2 0.4 4.6 1.2l43.6 23-8.4-48.6c-0.6-3.2 0.6-6.4 2.8-8.6L590 594l-48.8-7c-3.2-0.4-6-2.4-7.4-5.4L512 537.2l-21.8 44.2c-1.4 2.8-4.2 4.8-7.4 5.4l-48.8 7 35.4 34.4c2.2 2.2 3.4 5.4 2.8 8.6l-8.4 48.6 43.6-23c1.4-0.6 3-1 4.6-1z" fill="#402943" p-id="5497"></path><path d="M375.8 461h-68c-2.6 0-4.8-2.2-4.8-4.8s2.2-4.8 4.8-4.8h68c2.6 0 4.8 2.2 4.8 4.8s-2.2 4.8-4.8 4.8z" fill="#402943" p-id="5498"></path><path d="M716.4 461h-68c-2.6 0-4.8-2.2-4.8-4.8s2.2-4.8 4.8-4.8h68c2.6 0 4.8 2.2 4.8 4.8s-2.2 4.8-4.8 4.8z" fill="#402943" p-id="5499"></path><path d="M512 945c-2.6 0-4.8-2.2-4.8-4.8v-97.2c0-2.6 2.2-4.8 4.8-4.8 2.6 0 4.8 2.2 4.8 4.8V940c0 2.8-2.2 5-4.8 5z" fill="#402943" p-id="5500"></path></svg>