<?xml version="1.0" standalone="no"?><!DOCTYPE svg PUBLIC "-//W3C//DTD SVG 1.1//EN" "http://www.w3.org/Graphics/SVG/1.1/DTD/svg11.dtd"><svg t="1585723321770" class="icon" viewBox="0 0 1024 1024" version="1.1" xmlns="http://www.w3.org/2000/svg" p-id="3591" xmlns:xlink="http://www.w3.org/1999/xlink" width="200" height="200"><defs><style type="text/css"></style></defs><path d="M937.572 512.188c0 235.254-190.724 425.95-425.948 425.95-235.254 0-425.948-190.696-425.948-425.95S276.372 86.238 511.624 86.238c235.224 0 425.948 190.696 425.948 425.95z" fill="#A0D468" p-id="3592"></path><path d="M756.964 744.256l-1.904-0.594c-31.914-8.648-55.332-16.892-69.414-22.326-49.93-19.204-62.954-33.068-66.262-39.594-0.124-0.25-0.218-0.5-0.312-0.748l-0.468-61.046-213.27 2.436-0.406 58.612c-0.094 0.248-0.188 0.498-0.312 0.748-3.342 6.526-16.33 20.39-66.26 39.624-14.084 5.402-37.502 13.646-69.134 22.232l-2.186 0.656c-28.758 9.618-48.15 36.596-48.15 67.042v10.304c76.348 72.224 179.362 116.536 292.74 116.536 113.724 0 217.08-44.592 293.458-117.254v-9.586c0-30.446-19.328-57.424-48.12-67.042z" fill="#656D78" p-id="3593"></path><path d="M457.012 931.516a229.79 229.79 0 0 0 54.708 6.622c18.862 0 37.346-2.312 55.27-6.778l-19.456-152.662h-71.068l-19.454 152.818z" fill="#DA4453" p-id="3594"></path><path d="M547.534 778.698h-71.07l-28.414-103.794h127.902z" fill="#ED5564" p-id="3595"></path><path d="M678.088 508.378c0 107.946-102.886 211.708-166.088 211.708-63.232 0-166.12-103.764-166.12-211.708 0-107.916 74.378-179.112 166.12-179.112s166.088 71.196 166.088 179.112z" fill="#EAC6BB" p-id="3596"></path><path d="M619.01 309.72c-28.258-25.574-122.936-56.986-217.392 0-47.806 28.852-82.624 156.314-82.624 156.314s93.302 52.896 214.738-4.246c72.662-34.222 71.04-16.298 91.804 14.832 12.3 18.486 52.55 31.758 52.55 31.758s31.322-116.816-59.076-198.658z" fill="#656D78" p-id="3597"></path><path d="M149.626 533.514H21.696c-11.772 0-21.294-9.554-21.294-21.326s9.524-21.326 21.294-21.326h127.932c11.772 0 21.296 9.554 21.296 21.326s-9.526 21.326-21.298 21.326zM1002.274 533.514h-127.9c-11.774 0-21.328-9.554-21.328-21.326s9.554-21.326 21.328-21.326h127.9c11.772 0 21.326 9.554 21.326 21.326s-9.556 21.326-21.326 21.326zM512 171.14c-11.772 0-21.326-9.554-21.326-21.326v-127.9c0-11.772 9.554-21.326 21.326-21.326s21.294 9.554 21.294 21.326v127.9c0 11.772-9.522 21.326-21.294 21.326zM512 1023.412c-11.772 0-21.326-9.554-21.326-21.326v-127.9c0-11.772 9.554-21.326 21.326-21.326s21.294 9.554 21.294 21.326v127.9c0 11.772-9.522 21.326-21.294 21.326z" fill="#434A54" p-id="3598"></path><path d="M827.876 195.936c-84.464-84.498-196.784-131.024-316.252-131.024S279.838 111.438 195.342 195.936C110.876 280.4 64.35 392.718 64.35 512.188S110.876 743.974 195.342 828.44c84.496 84.498 196.814 131.024 316.284 131.024s231.788-46.526 316.252-131.024c84.464-84.464 130.992-196.784 130.992-316.252S912.342 280.4 827.876 195.936z m-30.132 602.37c-76.44 76.442-178.046 118.502-286.12 118.502-108.102 0-209.71-42.06-286.12-118.502-76.442-76.44-118.534-178.046-118.534-286.12s42.092-209.71 118.534-286.122c76.408-76.44 178.018-118.5 286.12-118.5 108.072 0 209.68 42.06 286.12 118.5 76.41 76.442 118.502 178.048 118.502 286.122s-42.092 209.682-118.502 286.12z" fill="#434A54" p-id="3599"></path></svg>