<?xml version="1.0" standalone="no"?><!DOCTYPE svg PUBLIC "-//W3C//DTD SVG 1.1//EN" "http://www.w3.org/Graphics/SVG/1.1/DTD/svg11.dtd"><svg t="1585723336412" class="icon" viewBox="0 0 1024 1024" version="1.1" xmlns="http://www.w3.org/2000/svg" p-id="4803" xmlns:xlink="http://www.w3.org/1999/xlink" width="200" height="200"><defs><style type="text/css"></style></defs><path d="M764.548 395.68v107.516H62.82c-29.628 0-53.76-24.128-53.76-53.76 0-14.316 5.588-27.812 15.768-37.992s23.676-15.768 37.992-15.768h137.012l-30.492 13.632h-106.52a39.868 39.868 0 0 0-28.356 11.772 39.88 39.88 0 0 0-11.768 28.356c0 22.132 17.996 40.124 40.124 40.124h688.096v-80.252h-51.804l-6.088-13.632h71.524z" fill="#4A555F" p-id="4804"></path><path d="M826.84 1024H89.728c-44.488 0-80.68-36.192-80.68-80.68V449.468H22.68c0 22.088 17.988 40.088 40.092 40.128H826.84v206.584h-225.716a58.416 58.416 0 0 0-41.576 17.224 58.924 58.924 0 0 0-17.084 45.696c2.084 30.664 28.612 54.684 60.396 54.684h223.98V1024zM22.684 485.18V943.32c0 36.968 30.076 67.044 67.044 67.044h723.476v-182.952h-210.348c-38.924 0-71.428-29.6-73.996-67.388a72.56 72.56 0 0 1 21.048-56.264 71.972 71.972 0 0 1 51.216-21.22h212.084v-179.316H62.764a53.716 53.716 0 0 1-40.08-18.044z" fill="#4A555F" p-id="4805"></path><path d="M89.728 994.46c-28.2 0-51.14-22.94-51.14-51.14V514.772a69.356 69.356 0 0 0 24.136 4.356h734.576v147.508H601.12a87.776 87.776 0 0 0-62.464 25.876 88.472 88.472 0 0 0-25.668 68.592c3.132 46.1 42.608 82.212 89.864 82.212h194.444v151.14H89.728z" fill="#F68F6F" p-id="4806"></path><path d="M848.164 827.412h-247.028c-39.944 0-72.436-32.496-72.436-72.44 0-39.944 32.496-72.436 72.436-72.436h247.028a27.772 27.772 0 0 1 27.74 27.74v89.4c-0.004 15.292-12.448 27.736-27.74 27.736z m-247.032-131.244c-32.424 0-58.804 26.38-58.804 58.804 0 32.428 26.38 58.808 58.804 58.808h247.028a14.12 14.12 0 0 0 14.104-14.104v-89.4a14.12 14.12 0 0 0-14.104-14.104h-247.028z" fill="#4A555F" p-id="4807"></path><path d="M601.136 712.052c-23.676 0-42.896 19.268-42.896 42.944 0 23.628 19.224 42.896 42.896 42.896h245.208v-85.84h-245.208z m12.176 65.164a22.224 22.224 0 0 1-22.22-22.22 22.236 22.236 0 0 1 22.22-22.268 22.236 22.236 0 0 1 22.22 22.268 22.22 22.22 0 0 1-22.22 22.22z" fill="#F68F6F" p-id="4808"></path><path d="M613.304 784.024c-16.02 0-29.048-13.032-29.048-29.048s13.032-29.048 29.048-29.048c16.02 0 29.048 13.032 29.048 29.048s-13.032 29.048-29.048 29.048z m0-44.464c-8.5 0-15.416 6.916-15.416 15.416s6.916 15.416 15.416 15.416 15.416-6.916 15.416-15.416-6.916-15.416-15.416-15.416zM64.184 456.252l0.228-0.088v0.088zM237.456 442.62h461.652L604.132 230.04 128.12 442.62h68.664v0.048H94.628L611.04 212.044l102.976 230.624H237.456z" fill="#4A555F" p-id="4809"></path><path d="M623.548 306.612c-1.316 0.228-2.636 0.456-4 0.636a82.36 82.36 0 0 1-11.86 0.864c-1.228 0-2.452-0.044-3.68-0.092-1.68-0.044-3.316-0.184-4.952-0.364a31.228 31.228 0 0 1-2.092-0.228 30.8 30.8 0 0 1-2.816-0.408 11.96 11.96 0 0 1-1.228-0.18c-0.408-0.092-0.816-0.184-1.228-0.228a44.392 44.392 0 0 1-2.452-0.5 88.92 88.92 0 0 1-11.86-3.452 87.704 87.704 0 0 1-13.724-6.5c-0.044 0-0.092-0.044-0.18-0.092-1.136-0.684-2.272-1.364-3.364-2.092-1-0.636-1.956-1.316-2.952-2.044a76.056 76.056 0 0 1-6.772-5.316c-0.636-0.544-1.228-1.092-1.816-1.636a15.3 15.3 0 0 1-1.5-1.408c-1-0.956-2-1.956-2.952-3a70.468 70.468 0 0 1-4.18-4.772 56.28 56.28 0 0 1-1.364-1.68L146.04 449.44h541.316l-63.808-142.828z" fill="#E0E0E0" p-id="4810"></path><path d="M607.652 314.92a94.024 94.024 0 0 1-85.756-55.608l-2.78-6.224 91.936-41.064 41.06 91.936-6.224 2.78a93.136 93.136 0 0 1-38.236 8.18z m-70.264-55.06a80.4 80.4 0 0 0 70.264 41.432c9.016 0 17.848-1.504 26.336-4.472l-29.824-66.78-66.776 29.82z" fill="#4A555F" p-id="4811"></path><path d="M563.328 303.792l-310.736 138.872h-33.4l330.552-147.736c4.268 3.32 8.812 6.32 13.584 8.864z" fill="#4A555F" p-id="4812"></path><path d="M662.208 442.668h-14.952l-57.848-129.512c5.136 1 10.408 1.588 15.768 1.728l57.032 127.784z" fill="#4A555F" p-id="4813"></path><path d="M64.424 442.648h686.5v13.632H64.424z" fill="#4A555F" p-id="4814"></path><path d="M938.04 641.86l-11.032-8.012c2.62-3.612 5.184-7.272 7.688-10.976l11.3 7.628c-2.592 3.836-5.244 7.62-7.956 11.36z m15.512-22.988l-11.556-7.232a398.488 398.488 0 0 0 6.916-11.48l11.796 6.836c-2.324 4-4.708 7.96-7.156 11.876z m13.896-23.996l-12.028-6.42a397.84 397.84 0 0 0 6.108-11.924l12.24 6.004a397.808 397.808 0 0 1-6.32 12.34z m12.208-24.9l-12.44-5.58a391.4 391.4 0 0 0 5.268-12.316l12.624 5.144a382.716 382.716 0 0 1-5.452 12.752z m10.472-25.684l-12.8-4.7a397.036 397.036 0 0 0 4.408-12.656l12.948 4.256a411.38 411.38 0 0 1-4.556 13.1z m8.668-26.348l-13.092-3.804c1.244-4.28 2.42-8.592 3.524-12.932l13.212 3.36a398.768 398.768 0 0 1-3.644 13.376z m6.828-26.88l-13.324-2.896c0.948-4.352 1.824-8.732 2.628-13.14l13.412 2.44a421.08 421.08 0 0 1-2.716 13.596z m4.968-27.284l-13.488-1.98c0.648-4.404 1.224-8.836 1.724-13.296l13.548 1.528a406.968 406.968 0 0 1-1.784 13.748z m3.096-27.548l-13.588-1.072a388.744 388.744 0 0 0 0.82-13.392l13.62 0.604a384.216 384.216 0 0 1-0.852 13.86z m1.24-27.716l-13.632-0.148a373.848 373.848 0 0 0-0.084-13.396l13.628-0.324a393.288 393.288 0 0 1 0.088 13.868z m-14.26-26.936a387.408 387.408 0 0 0-0.996-13.352l13.576-1.248c0.42 4.588 0.768 9.196 1.032 13.824l-13.612 0.776z m-2.452-26.672c-0.56-4.44-1.2-8.86-1.912-13.256l13.46-2.176c0.736 4.552 1.396 9.128 1.976 13.72l-13.524 1.712z m-4.28-26.436a386.26 386.26 0 0 0-2.82-13.092l13.272-3.104c1.048 4.492 2.024 9.012 2.924 13.552l-13.376 2.644z m-6.1-26.08a388.62 388.62 0 0 0-3.716-12.868l13.028-4.008c1.356 4.412 2.64 8.852 3.848 13.32l-13.16 3.556zM237.76 286.372l-13-4.108c1.4-4.428 2.872-8.824 4.42-13.184l12.848 4.564a382.904 382.904 0 0 0-4.268 12.728z m742.216-9.544a378.196 378.196 0 0 0-4.584-12.544l12.724-4.9c1.652 4.296 3.236 8.624 4.744 12.988l-12.884 4.456z m-733.24-15.768l-12.684-4.996c1.7-4.316 3.476-8.6 5.316-12.836l12.504 5.432a407.56 407.56 0 0 0-5.136 12.4z m723.64-9.16c-1.748-4.104-3.56-8.18-5.44-12.216l12.36-5.756a410.88 410.88 0 0 1 5.628 12.632l-12.548 5.34zM257.436 236.448l-12.304-5.868a417.936 417.936 0 0 1 6.188-12.432l12.096 6.284a399.72 399.72 0 0 0-5.98 12.016z m701.648-8.784a373.604 373.604 0 0 0-6.264-11.812l11.932-6.596a400.78 400.78 0 0 1 6.484 12.236l-12.152 6.172zM269.808 212.636l-11.872-6.7a410.88 410.88 0 0 1 7.028-11.972l11.636 7.104a392.304 392.304 0 0 0-6.792 11.568z m676.344-8.384a399.216 399.216 0 0 0-7.064-11.372l11.46-7.388c2.5 3.876 4.932 7.796 7.304 11.756l-11.7 7.004zM283.788 189.744l-11.384-7.504c2.548-3.864 5.16-7.68 7.828-11.452l11.124 7.88a394.588 394.588 0 0 0-7.568 11.076z m647.848-7.988a392.84 392.84 0 0 0-7.82-10.864l10.924-8.152c2.76 3.7 5.46 7.448 8.092 11.24l-11.196 7.776zM299.3 167.872l-10.84-8.264c2.804-3.68 5.668-7.312 8.592-10.888l10.556 8.628a391.672 391.672 0 0 0-8.308 10.524z m616.324-7.576a382.696 382.696 0 0 0-8.548-10.308l10.344-8.88a409.8 409.8 0 0 1 8.844 10.668l-10.64 8.52zM316.264 147.12l-10.252-8.988c3.048-3.476 6.152-6.904 9.316-10.272l9.94 9.328c-3.056 3.26-6.056 6.572-9.004 9.932z m581.916-7.148a399.048 399.048 0 0 0-9.232-9.708l9.716-9.564a404.44 404.44 0 0 1 9.556 10.048l-10.04 9.224zM334.604 127.576l-9.616-9.66a419.16 419.16 0 0 1 9.988-9.612l9.284 9.984a398.812 398.812 0 0 0-9.656 9.288z m544.784-6.704a391.772 391.772 0 0 0-9.876-9.06l9.04-10.204a397.98 397.98 0 0 1 10.224 9.376l-9.388 9.888z m-525.16-11.54l-8.936-10.296c3.492-3.028 7.032-6 10.62-8.908l8.58 10.596a390.624 390.624 0 0 0-10.264 8.608z m505.1-6.24a391.752 391.752 0 0 0-10.48-8.368l8.324-10.796a410.76 410.76 0 0 1 10.84 8.656l-8.684 10.508zM375.044 92.472l-8.216-10.88a400.12 400.12 0 0 1 11.2-8.16l7.832 11.156a386.788 386.788 0 0 0-10.816 7.884z m463.048-5.752a397.332 397.332 0 0 0-11.032-7.636l7.568-11.34c3.852 2.568 7.656 5.204 11.412 7.896l-7.948 11.08zM396.948 77.072l-7.456-11.412c3.864-2.524 7.776-4.984 11.728-7.376l7.056 11.664a381.548 381.548 0 0 0-11.328 7.124z m418.824-5.24a390.536 390.536 0 0 0-11.528-6.86l6.764-11.836a397.52 397.52 0 0 1 11.94 7.104l-7.176 11.592z m-395.924-8.624l-6.656-11.896a414.624 414.624 0 0 1 12.196-6.556l6.252 12.116c-3.968 2.048-7.9 4.16-11.792 6.336z m372.632-4.692a390.44 390.44 0 0 0-11.984-6.052l5.936-12.272c4.172 2.02 8.308 4.108 12.4 6.26l-6.352 12.064z m-348.848-7.568l-5.828-12.324c4.164-1.972 8.368-3.868 12.608-5.704l5.408 12.516a393.48 393.48 0 0 0-12.188 5.512z m324.672-4.12a367.016 367.016 0 0 0-12.376-5.208l5.072-12.656c4.308 1.728 8.584 3.528 12.816 5.396l-5.512 12.468z m-300.116-6.476l-4.972-12.696c4.292-1.676 8.616-3.288 12.972-4.82l4.532 12.856a388.16 388.16 0 0 0-12.532 4.66z m275.184-3.52a390.472 390.472 0 0 0-12.676-4.328l4.184-12.976c4.408 1.424 8.784 2.916 13.116 4.48l-4.624 12.824z m-249.976-5.364l-4.084-13.008c4.392-1.376 8.812-2.684 13.264-3.916l3.64 13.14a399.756 399.756 0 0 0-12.82 3.784z m224.484-2.852a384.328 384.328 0 0 0-12.944-3.444l3.28-13.232c4.496 1.116 8.968 2.304 13.396 3.564l-3.732 13.112z m-198.732-4.272l-3.176-13.256a391.752 391.752 0 0 1 13.536-2.996l2.716 13.356a393.8 393.8 0 0 0-13.076 2.896z m172.732-2.172a391.344 391.344 0 0 0-13.148-2.548l2.36-13.428a389.44 389.44 0 0 1 13.612 2.64l-2.824 13.336z m-146.488-3.164l-2.256-13.448a397.084 397.084 0 0 1 13.712-2.056l1.788 13.516a391.056 391.056 0 0 0-13.244 1.988z m120.108-1.484c-4.408-0.62-8.84-1.172-13.296-1.648l1.448-13.556c4.612 0.492 9.196 1.06 13.752 1.704l-1.904 13.5z m-93.552-2.036l-1.324-13.572c4.588-0.444 9.192-0.816 13.816-1.108l0.856 13.608c-4.468 0.28-8.92 0.64-13.348 1.072z m66.908-0.808a428.38 428.38 0 0 0-13.376-0.744l0.532-13.624a404.268 404.268 0 0 1 13.844 0.772l-1 13.596z m-40.176-0.884l-0.396-13.628C602.2 0.056 606.128 0 610.064 0l2.072 0.004-0.044 13.632-2.028-0.004c-3.804 0-7.6 0.056-11.384 0.164z" fill="#4A555F" p-id="4815"></path><path d="M216.396 327.18l-23.908-75.8 13-4.1 18.408 58.356 51.612-34.956 7.648 11.288z" fill="#4A555F" p-id="4816"></path></svg>